<?xml version="1.0" encoding="UTF-8" standalone="no"?>
<svg
   width="85.943001"
   height="28.035999"
   viewBox="0 0 22.739 7.418"
   version="1.1"
   id="svg40"
   xmlns:xlink="http://www.w3.org/1999/xlink"
   xmlns="http://www.w3.org/2000/svg"
   xmlns:svg="http://www.w3.org/2000/svg">
  <defs
     id="defs18">
    <linearGradient
       id="linearGradient6">
      <stop
         style="stop-color:#b1c80f;stop-opacity:1;"
         offset="0"
         id="stop15" />
      <stop
         style="stop-color:#b1c810;stop-opacity:0;"
         offset="1"
         id="stop16" />
    </linearGradient>
    <linearGradient
       id="linearGradient34">
      <stop
         style="stop-color:#001f35;stop-opacity:1"
         offset="0"
         id="stop33" />
      <stop
         style="stop-color:#001f36;stop-opacity:0.15000001;"
         offset="1"
         id="stop34" />
    </linearGradient>
    <linearGradient
       id="linearGradient32">
      <stop
         style="stop-color:#001f35;stop-opacity:1"
         offset="0"
         id="stop31" />
      <stop
         style="stop-color:#001f35;stop-opacity:0.15000001;"
         offset="1"
         id="stop32" />
    </linearGradient>
    <linearGradient
       id="linearGradient30">
      <stop
         style="stop-color:#001f35;stop-opacity:1"
         offset="0"
         id="stop29" />
      <stop
         style="stop-color:#001f36;stop-opacity:0.15000001;"
         offset="1"
         id="stop30" />
    </linearGradient>
    <linearGradient
       id="linearGradient22">
      <stop
         style="stop-color:#001f35;stop-opacity:1"
         offset="0"
         id="stop21" />
      <stop
         style="stop-color:#001f35;stop-opacity:0.14723927;"
         offset="1"
         id="stop22" />
    </linearGradient>
    <linearGradient
       id="linearGradient5">
      <stop
         style="stop-color:#a8c093;stop-opacity:1;"
         offset="0.40461537"
         id="stop19" />
      <stop
         style="stop-color:#b1c8a5;stop-opacity:0.50102252;"
         offset="1"
         id="stop20" />
    </linearGradient>
    <linearGradient
       id="f">
      <stop
         style="stop-color:#b4b4b4;stop-opacity:1"
         offset="0"
         id="stop1" />
      <stop
         style="stop-color:#b4b4b4;stop-opacity:0"
         offset="1"
         id="stop2" />
    </linearGradient>
    <linearGradient
       id="h">
      <stop
         style="stop-color:#b4b4b4;stop-opacity:1"
         offset="0"
         id="stop3" />
      <stop
         style="stop-color:#b4b4b4;stop-opacity:0"
         offset="1"
         id="stop4" />
    </linearGradient>
    <linearGradient
       id="g">
      <stop
         style="stop-color:#b4b4b4;stop-opacity:1"
         offset="0"
         id="stop5" />
      <stop
         style="stop-color:#b4b4b4;stop-opacity:0"
         offset="1"
         id="stop6" />
    </linearGradient>
    <linearGradient
       id="c">
      <stop
         style="stop-color:#001f35;stop-opacity:1"
         offset="0"
         id="stop7" />
      <stop
         style="stop-color:#001f35;stop-opacity:0"
         offset="1"
         id="stop8" />
    </linearGradient>
    <linearGradient
       id="e">
      <stop
         style="stop-color:#001f35;stop-opacity:1"
         offset="0"
         id="stop9" />
      <stop
         style="stop-color:#001f35;stop-opacity:0"
         offset="1"
         id="stop10" />
    </linearGradient>
    <linearGradient
       id="d">
      <stop
         style="stop-color:#001f35;stop-opacity:1"
         offset="0"
         id="stop11" />
      <stop
         style="stop-color:#001f35;stop-opacity:0"
         offset="1"
         id="stop12" />
    </linearGradient>
    <linearGradient
       id="b">
      <stop
         style="stop-color:#001f35;stop-opacity:1"
         offset="0"
         id="stop13" />
      <stop
         style="stop-color:#001f35;stop-opacity:0"
         offset="1"
         id="stop14" />
    </linearGradient>
    <linearGradient
       id="i">
      <stop
         style="stop-color:#b4b4b4;stop-opacity:1"
         offset="0"
         id="stop17" />
      <stop
         style="stop-color:#b4b4b4;stop-opacity:0"
         offset="1"
         id="stop18" />
    </linearGradient>
    <linearGradient
       xlink:href="#b"
       id="n"
       x1="11.741"
       y1="4.0929999"
       x2="11.771"
       y2="5.598"
       gradientUnits="userSpaceOnUse"
       gradientTransform="rotate(2.681,7.736,-159.418)" />
    <linearGradient
       xlink:href="#c"
       id="o"
       gradientUnits="userSpaceOnUse"
       gradientTransform="rotate(92.681,7.548,-0.004)"
       x1="11.741"
       y1="4.0929999"
       x2="11.771"
       y2="5.598" />
    <linearGradient
       xlink:href="#d"
       id="p"
       gradientUnits="userSpaceOnUse"
       gradientTransform="rotate(-177.319,7.562,3.7)"
       x1="11.741"
       y1="4.0929999"
       x2="11.771"
       y2="5.598" />
    <linearGradient
       xlink:href="#e"
       id="q"
       gradientUnits="userSpaceOnUse"
       gradientTransform="rotate(-87.319,7.531,7.594)"
       x1="11.741"
       y1="4.0929999"
       x2="11.771"
       y2="5.598" />
    <linearGradient
       xlink:href="#f"
       id="r"
       gradientUnits="userSpaceOnUse"
       gradientTransform="rotate(2.681,15.41,168.443)"
       x1="11.741"
       y1="4.0929999"
       x2="11.771"
       y2="5.598" />
    <linearGradient
       xlink:href="#g"
       id="s"
       gradientUnits="userSpaceOnUse"
       gradientTransform="rotate(92.681,15.22,7.318)"
       x1="11.741"
       y1="4.0929999"
       x2="11.771"
       y2="5.598" />
    <linearGradient
       xlink:href="#h"
       id="t"
       gradientUnits="userSpaceOnUse"
       gradientTransform="rotate(-177.319,15.235,3.52)"
       x1="11.741"
       y1="4.0929999"
       x2="11.771"
       y2="5.598" />
    <linearGradient
       xlink:href="#i"
       id="u"
       gradientUnits="userSpaceOnUse"
       gradientTransform="rotate(-87.319,15.204,-0.447)"
       x1="11.741"
       y1="4.0929999"
       x2="11.771"
       y2="5.598" />
    <linearGradient
       xlink:href="#linearGradient32"
       id="linearGradient1"
       gradientUnits="userSpaceOnUse"
       gradientTransform="rotate(-7.319,11.169852,5.2044233)"
       x1="11.741"
       y1="4.0929999"
       x2="11.771"
       y2="5.598" />
    <linearGradient
       xlink:href="#linearGradient34"
       id="linearGradient2"
       gradientUnits="userSpaceOnUse"
       gradientTransform="rotate(82.681,11.265417,3.5218393)"
       x1="11.741"
       y1="4.0929999"
       x2="11.771"
       y2="5.598" />
    <linearGradient
       xlink:href="#linearGradient22"
       id="linearGradient3"
       gradientUnits="userSpaceOnUse"
       gradientTransform="rotate(172.681,11.275366,3.6015475)"
       x1="11.741"
       y1="4.0929999"
       x2="11.771"
       y2="5.598" />
    <linearGradient
       xlink:href="#linearGradient30"
       id="linearGradient4"
       gradientUnits="userSpaceOnUse"
       gradientTransform="rotate(-97.319,11.243285,3.6867796)"
       x1="11.741"
       y1="4.0929999"
       x2="11.771"
       y2="5.598" />
    <radialGradient
       xlink:href="#linearGradient5"
       id="radialGradient20"
       cx="11.138296"
       cy="3.6111846"
       fx="11.138296"
       fy="3.6111846"
       r="3.1082985"
       gradientTransform="matrix(1,0,0,1.0090773,0,-0.03277979)"
       gradientUnits="userSpaceOnUse" />
    <radialGradient
       xlink:href="#linearGradient6"
       id="radialGradient16"
       cx="11.377"
       cy="3.704"
       fx="11.377"
       fy="3.704"
       r="3.7041914"
       gradientUnits="userSpaceOnUse"
       gradientTransform="translate(-5.3001204e-6,-7.3160466e-5)" />
  </defs>
  <rect
     style="fill:none;stroke-width:4.99999;stroke-linecap:round"
     width="100.911"
     height="81.417"
     x="3.244"
     y="3.4449999"
     rx="1.058"
     id="rect18" />
  <rect
     style="fill:none;stroke:#001f35;stroke-width:0.274383;stroke-linecap:round;stroke-dasharray:none;stroke-opacity:1"
     width="7.1339998"
     height="7.1339998"
     x="0.13699999"
     y="0.13699999"
     rx="1.0190001"
     ry="1.0190001"
     id="rect19" />
  <rect
     style="fill:none;stroke:#b4b4b4;stroke-width:0.274383;stroke-linecap:round;stroke-dasharray:none;stroke-opacity:1"
     width="7.1339998"
     height="7.1339998"
     x="15.483"
     y="0.13699999"
     rx="1.0190001"
     ry="1.0190001"
     id="rect21" />
  <g
     id="g33"
     transform="rotate(-10,3.5936967,5.0178478)">
    <circle
       style="fill:#ffffff;fill-opacity:1;stroke:none;stroke-width:0.00972987;stroke-linecap:round;stroke-linejoin:round;stroke-dasharray:none;stroke-opacity:1"
       cx="-0.315"
       cy="5.1259999"
       transform="rotate(-49.417)"
       r="0.38600001"
       id="circle26" />
    <path
       style="fill:#f3f3f3;fill-opacity:1;stroke:#001f35;stroke-width:0.317506;stroke-linecap:round;stroke-linejoin:round"
       d="M 1.059,2.473 C 0.779,2.788 0.723,3.321 1.029,3.635 1.183,3.73 1.364,3.765 1.106,3.865 0.833,4.077 0.829,4.513 0.984,4.798 1.099,5.028 1.327,5.271 1.609,5.18 2.169,5.013 2.59,4.571 3,4.177 3.11,3.991 3.514,3.781 3.44,3.59 2.898,3.108 2.335,2.606 1.641,2.36 1.447,2.297 1.191,2.287 1.059,2.473 Z M 2.182,1.162 C 2.45,0.837 2.967,0.7 3.325,0.955 3.442,1.092 3.505,1.265 3.564,0.995 3.731,0.693 4.161,0.622 4.468,0.732 4.711,0.81 4.988,0.998 4.94,1.291 4.862,1.87 4.49,2.353 4.164,2.819 3.997,2.956 3.851,3.389 3.65,3.344 3.091,2.882 2.508,2.403 2.158,1.756 2.068,1.573 2.018,1.321 2.182,1.162 Z M 5.241,6.058 C 4.973,6.383 4.455,6.52 4.098,6.266 3.98,6.128 3.918,5.955 3.858,6.225 3.691,6.527 3.261,6.598 2.955,6.489 2.711,6.411 2.435,6.223 2.482,5.929 2.562,5.351 2.932,4.867 3.259,4.402 3.426,4.265 3.572,3.832 3.772,3.877 4.332,4.338 4.914,4.817 5.264,5.465 5.355,5.648 5.405,5.899 5.241,6.058 Z M 6.364,4.747 C 6.644,4.432 6.7,3.9 6.394,3.586 6.24,3.491 6.059,3.456 6.317,3.356 6.59,3.144 6.594,2.708 6.438,2.422 6.324,2.193 6.096,1.949 5.813,2.041 5.253,2.208 4.833,2.649 4.423,3.043 4.313,3.229 3.908,3.44 3.983,3.631 4.525,4.112 5.088,4.615 5.781,4.861 5.976,4.923 6.232,4.934 6.364,4.747 Z"
       id="path27" />
    <path
       style="fill:#001f35;fill-opacity:1;stroke:#001f35;stroke-width:0.132294;stroke-linecap:round;stroke-linejoin:round;stroke-dasharray:none;stroke-opacity:1"
       d="M 5.84,5.922 C 5.914,6.146 5.952,6.378 5.86,6.586 5.769,6.793 6.138,6.499 6.333,6.481 6.415,6.474 6.65,6.641 6.569,6.431 6.492,6.233 6.322,6.007 6.188,5.814 5.714,5.116 4.255,4.086 4.255,4.086 c 0,0 1.245,0.894 1.585,1.836 z"
       id="path28" />
    <path
       style="fill:#001f35;fill-opacity:1;stroke:none;stroke-width:0.132294;stroke-linecap:round;stroke-linejoin:round;stroke-dasharray:none;stroke-opacity:1"
       d="M 3.438,3.391 H 3.953 V 3.859 H 3.438 Z"
       id="path29" />
    <path
       style="fill:none;fill-opacity:1;stroke:url(#n);stroke-width:0.264588;stroke-linecap:round;stroke-linejoin:round;stroke-dasharray:none;stroke-opacity:1"
       d="m 3.741,4.112 c 0.302,1.051 0.215,1.314 0.215,1.314 v 0"
       id="path30" />
    <path
       style="fill:none;fill-opacity:1;stroke:url(#o);stroke-width:0.264588;stroke-linecap:round;stroke-linejoin:round;stroke-dasharray:none;stroke-opacity:1"
       d="M 3.249,3.647 C 2.197,3.949 1.935,3.862 1.935,3.862 v 0"
       id="path31" />
    <path
       style="fill:none;fill-opacity:1;stroke:url(#p);stroke-width:0.264588;stroke-linecap:round;stroke-linejoin:round;stroke-dasharray:none;stroke-opacity:1"
       d="M 3.753,3.1 C 3.451,2.049 3.538,1.786 3.538,1.786 v 0"
       id="path32" />
    <path
       style="fill:none;fill-opacity:1;stroke:url(#q);stroke-width:0.264588;stroke-linecap:round;stroke-linejoin:round;stroke-dasharray:none;stroke-opacity:1"
       d="M 4.241,3.571 C 5.292,3.27 5.555,3.356 5.555,3.356 v 0"
       id="path33" />
  </g>
  <g
     id="g1">
    <circle
       style="fill:#ffffff;fill-opacity:1;stroke:none;stroke-width:0.00972987;stroke-linecap:round;stroke-linejoin:round;stroke-dasharray:none;stroke-opacity:1"
       cx="2.5706217"
       cy="11.384798"
       transform="rotate(-59.417)"
       r="0.38600001"
       id="circle26-5" />
    <path
       style="fill:url(#radialGradient20);fill-opacity:1;stroke:#001f35;stroke-width:0.317506;stroke-linecap:round;stroke-linejoin:round"
       d="m 8.3286629,2.9517134 c -0.221047,0.358836 -0.1836417,0.8934628 0.172235,1.1495561 0.1681569,0.066815 0.3524848,0.069853 0.1157693,0.2131349 C 8.384628,4.5705896 8.4563994,5.0006603 8.6585344,5.2544151 8.8117263,5.4609513 9.078459,5.6606678 9.3403728,5.5220815 9.8628659,5.2603757 10.200717,4.7519847 10.536071,4.2927747 10.612102,4.0904992 10.973498,3.8135357 10.867455,3.6382874 10.249991,3.2577274 9.6083728,2.8611178 8.8821988,2.7393669 8.6802063,2.7110118 8.426359,2.7456176 8.3286629,2.9517134 Z M 9.2069493,1.4656236 C 9.4144421,1.0990233 9.8997979,0.87432857 10.296639,1.0632885 c 0.139013,0.1146018 0.231097,0.2740337 0.242315,-0.00211 0.112021,-0.32641119 0.52316,-0.47100126 0.844597,-0.41598239 0.252853,0.0346185 0.558291,0.17166181 0.561899,0.46854559 0.02373,0.5837482 -0.258749,1.1240075 -0.498877,1.6395372 C 11.3059,2.9171972 11.237308,3.3689716 11.031547,3.3595586 10.400814,3.0016467 9.743494,2.6311607 9.2864609,2.0547669 9.1660506,1.8901755 9.0730509,1.6506863 9.2069493,1.4656236 Z m 3.8627087,4.290429 c -0.207493,0.3666002 -0.693834,0.5914686 -1.089517,0.4033198 -0.140171,-0.1154129 -0.23127,-0.2750185 -0.243473,0.0013 -0.112021,0.3264112 -0.52316,0.4710012 -0.843438,0.4167935 -0.253838,-0.034445 -0.558291,-0.1716618 -0.563058,-0.4693567 -0.02158,-0.5831108 0.25875,-1.1240075 0.500035,-1.6387261 0.140673,-0.1639179 0.209266,-0.6156923 0.414041,-0.6061056 0.631545,0.3567534 1.28788,0.7274131 1.745087,1.3047917 0.121395,0.1644178 0.214221,0.4029221 0.08032,0.5879849 z m 0.878286,-1.4860899 c 0.221047,-0.3588359 0.183815,-0.892478 -0.172061,-1.1485713 -0.168157,-0.066815 -0.352485,-0.069853 -0.11577,-0.2131348 0.23204,-0.2561852 0.160268,-0.686256 -0.04303,-0.9408219 -0.152034,-0.2057251 -0.41894,-0.4064264 -0.681665,-0.2666816 -0.522493,0.2617058 -0.859534,0.7689383 -1.194887,1.2281483 -0.07603,0.2022755 -0.438238,0.4803975 -0.331211,0.6554721 0.617291,0.3795753 1.259083,0.7771696 1.984272,0.8990942 0.202804,0.027197 0.456825,-0.00642 0.554347,-0.213505 z"
       id="path27-2" />
    <path
       style="fill:#001f35;fill-opacity:1;stroke:#001f35;stroke-width:0.132294;stroke-linecap:round;stroke-linejoin:round;stroke-dasharray:none;stroke-opacity:1"
       d="m 13.635941,5.5181034 c 0.111773,0.207747 0.189482,0.4296238 0.134999,0.6504394 -0.05367,0.2196572 0.258669,-0.1339524 0.447581,-0.1855404 0.07954,-0.021133 0.339968,0.1025228 0.223732,-0.090221 C 14.332041,5.71116 14.125379,5.5181137 13.9599,5.3513146 13.371895,4.7462281 11.756203,3.9852288 11.756203,3.9852288 c 0,0 1.381327,0.6642261 1.879738,1.5328746 z"
       id="path28-6" />
    <path
       style="fill:#001f35;fill-opacity:1;stroke:none;stroke-width:0.132294;stroke-linecap:round;stroke-linejoin:round;stroke-dasharray:none;stroke-opacity:1"
       d="M 10.83093,3.4426579 11.338106,3.3532289 11.419376,3.814119 10.9122,3.903548 Z"
       id="path29-7" />
    <path
       style="fill:none;fill-opacity:1;stroke:url(#linearGradient1);stroke-width:0.264588;stroke-linecap:round;stroke-linejoin:round;stroke-dasharray:none;stroke-opacity:1"
       d="m 11.254527,4.1000889 c 0.479916,0.9825912 0.439907,1.2567031 0.439907,1.2567031 v 0"
       id="path30-7" />
    <path
       style="fill:none;fill-opacity:1;stroke:url(#linearGradient2);stroke-width:0.264588;stroke-linecap:round;stroke-linejoin:round;stroke-dasharray:none;stroke-opacity:1"
       d="M 10.689255,3.7275882 C 9.7056789,4.2076781 9.4325518,4.1674956 9.4325518,4.1674956 v 0"
       id="path31-9" />
    <path
       style="fill:none;fill-opacity:1;stroke:url(#linearGradient3);stroke-width:0.264588;stroke-linecap:round;stroke-linejoin:round;stroke-dasharray:none;stroke-opacity:1"
       d="M 11.090612,3.1013797 C 10.610696,2.1187885 10.650705,1.8446767 10.650705,1.8446767 v 0"
       id="path32-5" />
    <path
       style="fill:none;fill-opacity:1;stroke:url(#linearGradient4);stroke-width:0.264588;stroke-linecap:round;stroke-linejoin:round;stroke-dasharray:none;stroke-opacity:1"
       d="M 11.652987,3.4804839 C 12.635752,3.0015525 12.90969,3.0405765 12.90969,3.0405765 v 0"
       id="path33-3" />
  </g>
  <g
     id="g40"
     transform="rotate(-10,18.940685,5.0065382)">
    <circle
       style="fill:#ffffff;fill-opacity:1;stroke:none;stroke-width:0.00972987;stroke-linecap:round;stroke-linejoin:round;stroke-dasharray:none;stroke-opacity:1"
       cx="9.6680002"
       cy="16.781"
       transform="rotate(-49.417)"
       r="0.38600001"
       id="circle33" />
    <path
       style="fill:#f3f3f3;fill-opacity:1;stroke:#b4b4b4;stroke-width:0.317506;stroke-linecap:round;stroke-linejoin:round;stroke-opacity:1"
       d="m 16.405,2.473 c -0.28,0.315 -0.336,0.848 -0.03,1.162 0.154,0.095 0.335,0.13 0.077,0.23 -0.273,0.212 -0.277,0.648 -0.122,0.933 0.115,0.23 0.343,0.473 0.626,0.382 0.56,-0.167 0.98,-0.609 1.39,-1.003 C 18.456,3.991 18.86,3.781 18.786,3.59 18.244,3.108 17.681,2.606 16.988,2.36 16.793,2.297 16.537,2.287 16.405,2.473 Z m 1.123,-1.311 c 0.268,-0.325 0.786,-0.462 1.143,-0.207 0.118,0.137 0.18,0.31 0.24,0.04 0.166,-0.302 0.596,-0.373 0.903,-0.263 0.244,0.078 0.52,0.266 0.472,0.559 C 20.208,1.87 19.836,2.353 19.51,2.819 19.343,2.956 19.197,3.389 18.996,3.344 18.437,2.882 17.854,2.403 17.505,1.756 17.413,1.573 17.363,1.321 17.528,1.162 Z m 3.059,4.896 C 20.319,6.383 19.801,6.52 19.444,6.266 19.326,6.128 19.264,5.955 19.204,6.225 19.037,6.527 18.608,6.598 18.301,6.489 18.057,6.411 17.781,6.223 17.829,5.929 c 0.078,-0.578 0.45,-1.062 0.776,-1.527 0.167,-0.137 0.313,-0.57 0.513,-0.525 0.56,0.461 1.143,0.94 1.492,1.588 0.092,0.183 0.142,0.434 -0.023,0.593 z M 21.71,4.747 C 21.99,4.432 22.046,3.9 21.74,3.586 21.586,3.491 21.405,3.456 21.663,3.356 21.936,3.144 21.94,2.708 21.785,2.422 21.67,2.193 21.442,1.949 21.16,2.041 20.6,2.208 20.179,2.649 19.769,3.043 c -0.11,0.186 -0.514,0.397 -0.44,0.588 0.542,0.481 1.105,0.984 1.799,1.23 0.194,0.062 0.45,0.073 0.582,-0.114 z"
       id="path34" />
    <path
       style="fill:#b4b4b4;fill-opacity:1;stroke:#b4b4b4;stroke-width:0.132294;stroke-linecap:round;stroke-linejoin:round;stroke-dasharray:none;stroke-opacity:1"
       d="m 21.186,5.922 c 0.074,0.224 0.112,0.456 0.02,0.664 -0.091,0.207 0.278,-0.087 0.473,-0.105 0.083,-0.007 0.317,0.16 0.236,-0.05 C 21.838,6.233 21.669,6.007 21.534,5.814 21.06,5.116 19.601,4.086 19.601,4.086 c 0,0 1.244,0.895 1.585,1.836 z"
       id="path35" />
    <path
       style="fill:#b4b4b4;fill-opacity:1;stroke:none;stroke-width:0.132294;stroke-linecap:round;stroke-linejoin:round;stroke-dasharray:none;stroke-opacity:1"
       d="m 18.784,3.391 h 0.515 v 0.468 h -0.515 z"
       id="path36" />
    <path
       style="fill:none;fill-opacity:1;stroke:url(#r);stroke-width:0.264588;stroke-linecap:round;stroke-linejoin:round;stroke-dasharray:none;stroke-opacity:1"
       d="m 19.087,4.112 c 0.302,1.051 0.216,1.314 0.216,1.314 v 0"
       id="path37" />
    <path
       style="fill:none;fill-opacity:1;stroke:url(#s);stroke-width:0.264588;stroke-linecap:round;stroke-linejoin:round;stroke-dasharray:none;stroke-opacity:1"
       d="m 18.595,3.647 c -1.052,0.302 -1.314,0.215 -1.314,0.215 v 0"
       id="path38" />
    <path
       style="fill:none;fill-opacity:1;stroke:url(#t);stroke-width:0.264588;stroke-linecap:round;stroke-linejoin:round;stroke-dasharray:none;stroke-opacity:1"
       d="M 19.1,3.1 C 18.798,2.049 18.884,1.786 18.884,1.786 v 0"
       id="path39" />
    <path
       style="fill:none;fill-opacity:1;stroke:url(#u);stroke-width:0.264588;stroke-linecap:round;stroke-linejoin:round;stroke-dasharray:none;stroke-opacity:1"
       d="M 19.587,3.571 C 20.639,3.27 20.901,3.356 20.901,3.356 v 0"
       id="path40" />
  </g>
  <rect
     style="fill:url(#radialGradient16);fill-opacity:0.20177;stroke:#001f35;stroke-width:0.274383;stroke-linecap:round;stroke-dasharray:none;stroke-opacity:1"
     width="7.1339998"
     height="7.1339998"
     x="7.8099947"
     y="0.13692692"
     rx="1.0190001"
     ry="1.0190001"
     id="rect20" />
</svg>
