<svg width="85.943" height="28.036" viewBox="0 0 22.739 7.418" xmlns="http://www.w3.org/2000/svg"><path style="fill:#001f35;fill-opacity:1;stroke:#20496c;stroke-width:.285148;stroke-linecap:round;stroke-dasharray:none;stroke-opacity:1" d="M1.372 4.376h3.315"/><path style="fill:#e3f4d7;fill-opacity:1;stroke:#5179a7;stroke-width:.285148;stroke-linecap:round;stroke-dasharray:none;stroke-opacity:1" d="M1.372 3.45h3.315"/><path style="fill:#e3f4d7;fill-opacity:1;stroke:#94adce;stroke-width:.285149;stroke-linecap:round;stroke-dasharray:none;stroke-opacity:1" d="M1.372 2.524h3.315"/><path style="fill:#e3f4d7;fill-opacity:1;stroke:#dfe3e8;stroke-width:.285149;stroke-linecap:round;stroke-dasharray:none;stroke-opacity:1" d="M1.372 1.598h3.315"/><rect style="fill:none;stroke-width:4.99999;stroke-linecap:round" width="100.911" height="81.417" x="3.244" y="3.445" rx="1.058"/><rect style="fill:none;stroke:#001f35;stroke-width:.274383;stroke-linecap:round;stroke-dasharray:none;stroke-opacity:1" width="7.134" height="7.134" x=".137" y=".137" rx="1.019" ry="1.019"/><rect style="fill:none;stroke:#001f35;stroke-width:.274383;stroke-linecap:round;stroke-dasharray:none;stroke-opacity:1" width="7.134" height="7.134" x="7.81" y=".137" rx="1.019" ry="1.019"/><rect style="fill:none;stroke:#b4b4b4;stroke-width:.274383;stroke-linecap:round;stroke-dasharray:none;stroke-opacity:1" width="7.134" height="7.134" x="15.483" y=".137" rx="1.019" ry="1.019"/><path style="fill:#fff;fill-opacity:1;stroke:#000d35;stroke-width:.252438;stroke-linecap:round;stroke-dasharray:none;stroke-opacity:1" d="M4.56.655a2.118 1.475 0 0 0-2.118 1.476A2.118 1.475 0 0 0 4.56 3.606a2.118 1.475 0 0 0 .76-.101l1.03.679-.242-1.051a2.118 1.475 0 0 0 .57-1.002A2.118 1.475 0 0 0 4.56.655z"/><g transform="matrix(.85728 0 0 .80894 1.154 -.13)"><path style="font-size:3.61256px;font-family:'Liberation Sans';-inkscape-font-specification:'Liberation Sans';fill:#fff;stroke:#000d35;stroke-width:.338677;stroke-linecap:round" d="M4.02 1.428c-.251 0-.454.063-.607.187a.795.795 0 0 0-.274.536l.324.021a.501.501 0 0 1 .17-.338.583.583 0 0 1 .39-.123c.166 0 .293.038.384.116a.394.394 0 0 1 .137.318c0 .069-.011.13-.033.181a.506.506 0 0 1-.085.14.746.746 0 0 1-.122.113l-.137.1a2.292 2.292 0 0 0-.14.105.731.731 0 0 0-.123.126.635.635 0 0 0-.09.162.682.682 0 0 0-.037.214h.309a.426.426 0 0 1 .063-.22.679.679 0 0 1 .189-.195l.141-.104c.11-.08.188-.15.237-.208a.671.671 0 0 0 .11-.192.674.674 0 0 0 .04-.237.63.63 0 0 0-.227-.515c-.15-.124-.356-.187-.619-.187z" transform="scale(1.01922 .98114)"/><ellipse style="fill:#001f35;fill-opacity:1;stroke:#000d35;stroke-width:.27914;stroke-linecap:round;stroke-dasharray:none;stroke-opacity:1" cx="3.339" cy="2.294" rx=".196" ry=".148"/><ellipse style="fill:#001f35;fill-opacity:1;stroke:#001f33;stroke-width:.232261;stroke-linecap:round;stroke-dasharray:none;stroke-opacity:1" cx="4.008" cy="3.4" rx=".216" ry=".161"/><ellipse style="fill:#001f35;fill-opacity:1;stroke:#001f33;stroke-width:.232261;stroke-linecap:round;stroke-dasharray:none;stroke-opacity:1" cx="4.011" cy="3.991" rx=".216" ry=".161"/></g><path style="fill:#f4d7d7;fill-opacity:1;stroke:#000d35;stroke-width:.252437;stroke-linecap:round;stroke-dasharray:none;stroke-opacity:1" d="M12.233.655a2.118 1.475 0 0 0-2.118 1.476 2.118 1.475 0 0 0 2.118 1.475 2.118 1.475 0 0 0 .759-.101l1.03.679-.24-1.051a2.118 1.475 0 0 0 .568-1.002A2.118 1.475 0 0 0 12.233.655z"/><g transform="matrix(.85727 0 0 .80894 8.827 -.13)" style="fill:#001f35;fill-opacity:1"><path style="font-size:3.61256px;font-family:'Liberation Sans';-inkscape-font-specification:'Liberation Sans';fill:#001f35;fill-opacity:1;stroke:#000d35;stroke-width:.338677;stroke-linecap:round" d="M4.02 1.428c-.251 0-.454.063-.607.187a.795.795 0 0 0-.274.536l.324.021a.501.501 0 0 1 .17-.338.583.583 0 0 1 .39-.123c.166 0 .293.038.384.116a.394.394 0 0 1 .137.318c0 .069-.011.13-.033.181a.506.506 0 0 1-.085.14.746.746 0 0 1-.122.113l-.137.1a2.292 2.292 0 0 0-.14.105.731.731 0 0 0-.123.126.635.635 0 0 0-.09.162.682.682 0 0 0-.037.214h.309a.426.426 0 0 1 .063-.22.679.679 0 0 1 .189-.195l.141-.104c.11-.08.188-.15.237-.208a.671.671 0 0 0 .11-.192.674.674 0 0 0 .04-.237.63.63 0 0 0-.227-.515c-.15-.124-.356-.187-.619-.187z" transform="scale(1.01922 .98114)"/><ellipse style="fill:#001f35;fill-opacity:1;stroke:#000d35;stroke-width:.27914;stroke-linecap:round;stroke-dasharray:none;stroke-opacity:1" cx="3.339" cy="2.294" rx=".196" ry=".148"/><ellipse style="fill:#001f35;fill-opacity:1;stroke:#001f33;stroke-width:.232261;stroke-linecap:round;stroke-dasharray:none;stroke-opacity:1" cx="4.008" cy="3.4" rx=".216" ry=".161"/><ellipse style="fill:#001f35;fill-opacity:1;stroke:#001f33;stroke-width:.232261;stroke-linecap:round;stroke-dasharray:none;stroke-opacity:1" cx="4.011" cy="3.991" rx=".216" ry=".161"/></g><path style="fill:#e3f4d7;fill-opacity:1;stroke:#000d35;stroke-width:.265814;stroke-linecap:round;stroke-dasharray:none;stroke-opacity:1" d="M10.7 2.75a2.233 1.551 0 0 1 2.233 1.552A2.233 1.551 0 0 1 10.7 5.853a2.233 1.551 0 0 1-.8-.106l-1.087.714.254-1.105a2.233 1.551 0 0 1-.6-1.054A2.233 1.551 0 0 1 10.7 2.75z"/><path style="fill:#e3f4d7;fill-opacity:1;stroke:#c8c8c8;stroke-width:.285149;stroke-linecap:round;stroke-dasharray:none;stroke-opacity:1" d="M1.374 5.315H4.69"/><path style="fill:none;stroke:none;stroke-width:.132241;stroke-linecap:round;stroke-dasharray:none;stroke-opacity:1" d="m16.774 6.275 3.467-.014z"/><path style="fill:#fff;fill-opacity:1;stroke:#b4b4b4;stroke-width:.252437;stroke-linecap:round;stroke-dasharray:none;stroke-opacity:1" d="M19.906.655a2.118 1.475 0 0 0-2.118 1.476 2.118 1.475 0 0 0 2.118 1.475 2.118 1.475 0 0 0 .759-.101l1.03.679-.24-1.051a2.118 1.475 0 0 0 .568-1.002A2.118 1.475 0 0 0 19.906.655z"/><g transform="matrix(.85727 0 0 .80894 16.5 -.13)" style="fill:#b4b4b4;fill-opacity:1;stroke:#b4b4b4;stroke-opacity:1"><path style="font-size:3.61256px;font-family:'Liberation Sans';-inkscape-font-specification:'Liberation Sans';fill:#b4b4b4;fill-opacity:1;stroke:#b4b4b4;stroke-width:.338677;stroke-linecap:round;stroke-opacity:1" d="M4.02 1.428c-.251 0-.454.063-.607.187a.795.795 0 0 0-.274.536l.324.021a.501.501 0 0 1 .17-.338.583.583 0 0 1 .39-.123c.166 0 .293.038.384.116a.394.394 0 0 1 .137.318c0 .069-.011.13-.033.181a.506.506 0 0 1-.085.14.746.746 0 0 1-.122.113l-.137.1a2.292 2.292 0 0 0-.14.105.731.731 0 0 0-.123.126.635.635 0 0 0-.09.162.682.682 0 0 0-.037.214h.309a.426.426 0 0 1 .063-.22.679.679 0 0 1 .189-.195l.141-.104c.11-.08.188-.15.237-.208a.671.671 0 0 0 .11-.192.674.674 0 0 0 .04-.237.63.63 0 0 0-.227-.515c-.15-.124-.356-.187-.619-.187z" transform="scale(1.01922 .98114)"/><ellipse style="fill:#b4b4b4;fill-opacity:1;stroke:#b4b4b4;stroke-width:.27914;stroke-linecap:round;stroke-dasharray:none;stroke-opacity:1" cx="3.339" cy="2.294" rx=".196" ry=".148"/><ellipse style="fill:#b4b4b4;fill-opacity:1;stroke:#b4b4b4;stroke-width:.232261;stroke-linecap:round;stroke-dasharray:none;stroke-opacity:1" cx="4.008" cy="3.4" rx=".216" ry=".161"/><ellipse style="fill:#b4b4b4;fill-opacity:1;stroke:#b4b4b4;stroke-width:.232261;stroke-linecap:round;stroke-dasharray:none;stroke-opacity:1" cx="4.011" cy="3.991" rx=".216" ry=".161"/></g><path style="fill:#fff;fill-opacity:1;stroke:#b4b4b4;stroke-width:.265814;stroke-linecap:round;stroke-dasharray:none;stroke-opacity:1" d="M18.373 2.75a2.233 1.551 0 0 1 2.232 1.552 2.233 1.551 0 0 1-2.232 1.551 2.233 1.551 0 0 1-.8-.106l-1.087.714.254-1.105a2.233 1.551 0 0 1-.6-1.054 2.233 1.551 0 0 1 2.233-1.552z"/><path style="fill:#001f35;fill-opacity:1;stroke:#b4b4b4;stroke-width:.285149;stroke-linecap:round;stroke-dasharray:none;stroke-opacity:1" d="M16.718 4.899h3.315"/><text xml:space="preserve" style="font-style:normal;font-variant:normal;font-weight:400;font-stretch:normal;font-size:.764699px;font-family:'Liberation Sans Narrow';-inkscape-font-specification:'Liberation Sans Narrow';mix-blend-mode:darken;fill:#b4b4b4;fill-opacity:1;stroke:#b4b4b4;stroke-width:.0716902;stroke-linecap:round;stroke-dasharray:none;stroke-opacity:1" x="12.822" y="3.103" transform="scale(.70347 1.42152)"><tspan style="font-style:normal;font-variant:normal;font-weight:700;font-stretch:normal;font-family:Arial;-inkscape-font-specification:'Arial Bold';fill:#001f35;fill-opacity:.55;stroke:#203c60;stroke-width:.0716902;stroke-opacity:.5" x="12.822" y="3.103">Lorem ipsum</tspan></text><text xml:space="preserve" style="font-style:normal;font-variant:normal;font-weight:400;font-stretch:normal;font-size:.764699px;font-family:'Liberation Sans Narrow';-inkscape-font-specification:'Liberation Sans Narrow';mix-blend-mode:darken;fill:#b4b4b4;fill-opacity:1;stroke:#d5d5d5;stroke-width:.0716902;stroke-linecap:round;stroke-dasharray:none;stroke-opacity:1" x="23.752" y="3.192" transform="scale(.70347 1.42152)"><tspan style="font-style:normal;font-variant:normal;font-weight:700;font-stretch:normal;font-family:Arial;-inkscape-font-specification:'Arial Bold';fill:#b4b4b4;fill-opacity:1;stroke:#d5d5d5;stroke-width:.0716902;stroke-opacity:1" x="23.752" y="3.192">Lorem ipsum</tspan></text><path style="fill:#001f35;fill-opacity:1;stroke:#b4b4b4;stroke-width:.285149;stroke-linecap:round;stroke-dasharray:none;stroke-opacity:1" d="M9.043 4.795h3.315"/></svg>