<?xml version="1.0" encoding="UTF-8" standalone="no"?>
<!-- Created with Inkscape (http://www.inkscape.org/) -->

<svg
   width="27.516665mm"
   height="8.9958324mm"
   viewBox="0 0 27.516664 8.9958324"
   version="1.1"
   id="svg1"
   xmlns="http://www.w3.org/2000/svg"
   xmlns:svg="http://www.w3.org/2000/svg">
  <defs
     id="defs1" />
  <rect
     style="fill:#000000;fill-opacity:0;stroke:#001f35;stroke-width:0.333177;stroke-linecap:round;stroke-dasharray:none;stroke-opacity:1"
     width="8.6626558"
     height="8.6626558"
     x="0.16658948"
     y="0.16658632"
     rx="1.237349"
     ry="1.237349"
     id="rect9" />
  <rect
     style="fill:none;fill-opacity:1;stroke:#b4b4b4;stroke-width:0.333177;stroke-linecap:round;stroke-dasharray:none;stroke-opacity:1"
     width="8.6626558"
     height="8.6626558"
     x="18.687422"
     y="0.16658632"
     rx="1.237349"
     ry="1.237349"
     id="rect11" />
  <rect
     style="fill:none;fill-opacity:1;stroke:#001f35;stroke-width:0.333177;stroke-linecap:round;stroke-dasharray:none;stroke-opacity:1"
     width="8.6626558"
     height="8.6626558"
     x="9.4270048"
     y="0.16658632"
     rx="1.237349"
     ry="1.237349"
     id="rect10" />
  <g
     id="rect3"
     transform="matrix(0.9222425,0,0,0.9222425,0.6578352,0.1185249)">
    <path
       style="color:#000000;fill:#001f35;stroke-linecap:round;stroke-linejoin:round;-inkscape-stroke:none"
       d="M 6.028728,3.1558717 6.9955196,4.0198082 7.1601115,3.835621 6.6480086,3.3779998 6.8239641,3.1810961 7.336067,3.6387173 7.5519648,3.3971159 6.8965194,2.811402 7.2405096,2.4264583 7.4821113,2.6423564 7.5626857,2.5521892 7.9765296,2.922005 8.1090984,2.7736533 7.4544236,2.1886282 7.6286573,1.9936513 8.283332,2.5786764 8.393864,2.4549852 7.4270724,1.5910487 Z"
       id="path10" />
    <path
       style="color:#000000;fill:#001f35;stroke-linecap:round;stroke-linejoin:round;-inkscape-stroke:none"
       d="m 7.4707031,1.5410156 a 0.06615245,0.06615245 0 0 0 -0.09375,0.00586 L 5.9785156,3.1113281 a 0.06615245,0.06615245 0 0 0 0.00586,0.09375 l 0.9667969,0.8632813 a 0.06615245,0.06615245 0 0 0 0.09375,-0.00391 L 7.2089844,3.8789063 a 0.06615245,0.06615245 0 0 0 -0.00391,-0.091797 L 6.7421875,3.3730469 6.8300781,3.2753906 7.2910156,3.6875 a 0.06615245,0.06615245 0 0 0 0.09375,-0.00391 L 7.6015625,3.4414063 a 0.06615245,0.06615245 0 0 0 -0.00586,-0.09375 L 6.9902344,2.8066406 7.2460937,2.5195313 7.4375,2.6914063 a 0.06615245,0.06615245 0 0 0 0.09375,-0.00586 l 0.037109,-0.041016 0.3632812,0.3261718 a 0.06615245,0.06615245 0 0 0 0.09375,-0.00391 L 8.1582031,2.8183594 a 0.06615245,0.06615245 0 0 0 -0.00586,-0.09375 l -0.603515,-0.5410156 0.085937,-0.095703 0.6035157,0.5410157 a 0.06615245,0.06615245 0 0 0 0.09375,-0.00586 L 8.4433594,2.5 A 0.06615245,0.06615245 0 0 0 8.4375,2.40625 Z M 7.4316406,1.6855469 8.2988281,2.4589844 8.2773438,2.484375 7.671875,1.9433594 a 0.06615245,0.06615245 0 0 0 -0.091797,0.00586 L 7.4042969,2.1445313 a 0.06615245,0.06615245 0 0 0 0.00586,0.09375 L 8.015625,2.7792969 7.9726562,2.828125 7.6074219,2.5019531 a 0.06615245,0.06615245 0 0 0 -0.09375,0.00586 l -0.037109,0.041016 -0.1914063,-0.171875 a 0.06615245,0.06615245 0 0 0 -0.09375,0.00586 l -0.34375,0.3847656 a 0.06615245,0.06615245 0 0 0 0.00391,0.09375 L 7.4589844,3.4023438 7.3300781,3.5449219 6.8671875,3.1308594 a 0.06615245,0.06615245 0 0 0 -0.091797,0.00586 l -0.1757811,0.197265 a 0.06615245,0.06615245 0 0 0 0.00391,0.09375 L 7.0664062,3.8417969 6.9902344,3.9257813 6.1210937,3.1503906 Z"
       id="path11" />
  </g>
  <g
     id="g14">
    <ellipse
       style="fill:none;fill-opacity:0.601562;stroke:#001f35;stroke-width:0.608565;stroke-linecap:round;stroke-linejoin:round;stroke-dasharray:none;stroke-opacity:1"
       id="path1"
       cx="6.1175785"
       cy="3.2665644"
       rx="1.6187594"
       ry="1.2706646"
       transform="matrix(0.75709556,0.65330415,-0.66256358,0.74900568,0,0)" />
    <path
       style="fill:none;fill-opacity:0.601562;stroke:#001f35;stroke-width:0.608542;stroke-linecap:round;stroke-linejoin:round;stroke-dasharray:none;stroke-opacity:1"
       d="m 3.6829221,5.3666179 3.76452,-4.1983641"
       id="path2" />
    <g
       id="rect12"
       transform="matrix(0.61969045,-0.68301901,0.68301901,0.61969045,0.60767152,0.04686244)">
      <path
         style="color:#000000;fill:#001f35;stroke-linecap:round;stroke-linejoin:round;-inkscape-stroke:none"
         d="M 2.901859,6.3923869 H 3.0886735 V 7.7660223 H 2.901859 Z"
         id="path12" />
      <path
         style="color:#000000;fill:#001f35;stroke-linecap:round;stroke-linejoin:round;-inkscape-stroke:none"
         d="m 2.9023438,6.3261719 a 0.06615262,0.06615262 0 0 0 -0.066406,0.066406 V 7.765625 a 0.06615262,0.06615262 0 0 0 0.066406,0.066406 H 3.0878906 A 0.06615262,0.06615262 0 0 0 3.1542969,7.765625 V 6.3925781 A 0.06615262,0.06615262 0 0 0 3.0878906,6.3261719 Z M 2.96875,6.4589844 H 3.023437 V 7.6992187 H 2.96875 Z"
         id="path13" />
    </g>
  </g>
  <g
     id="rect3-6-2"
     transform="matrix(0.9222425,0,0,0.9222425,9.918262,0.11850063)"
     style="fill:#d79641;fill-opacity:1">
    <path
       style="color:#000000;fill:#d79641;fill-opacity:1;stroke-linecap:round;stroke-linejoin:round;-inkscape-stroke:none"
       d="M 6.028728,3.1558717 6.9955196,4.0198082 7.1601115,3.835621 6.6480086,3.3779998 6.8239641,3.1810961 7.336067,3.6387173 7.5519648,3.3971159 6.8965194,2.811402 7.2405096,2.4264583 7.4821113,2.6423564 7.5626857,2.5521892 7.9765296,2.922005 8.1090984,2.7736533 7.4544236,2.1886282 7.6286573,1.9936513 8.283332,2.5786764 8.393864,2.4549852 7.4270724,1.5910487 Z"
       id="path10-1-7" />
    <path
       style="color:#000000;fill:#d79641;fill-opacity:1;stroke-linecap:round;stroke-linejoin:round;-inkscape-stroke:none"
       d="m 7.4707031,1.5410156 a 0.06615245,0.06615245 0 0 0 -0.09375,0.00586 L 5.9785156,3.1113281 a 0.06615245,0.06615245 0 0 0 0.00586,0.09375 l 0.9667969,0.8632813 a 0.06615245,0.06615245 0 0 0 0.09375,-0.00391 L 7.2089844,3.8789063 a 0.06615245,0.06615245 0 0 0 -0.00391,-0.091797 L 6.7421875,3.3730469 6.8300781,3.2753906 7.2910156,3.6875 a 0.06615245,0.06615245 0 0 0 0.09375,-0.00391 L 7.6015625,3.4414063 a 0.06615245,0.06615245 0 0 0 -0.00586,-0.09375 L 6.9902344,2.8066406 7.2460937,2.5195313 7.4375,2.6914063 a 0.06615245,0.06615245 0 0 0 0.09375,-0.00586 l 0.037109,-0.041016 0.3632812,0.3261718 a 0.06615245,0.06615245 0 0 0 0.09375,-0.00391 L 8.1582031,2.8183594 a 0.06615245,0.06615245 0 0 0 -0.00586,-0.09375 l -0.603515,-0.5410156 0.085937,-0.095703 0.6035157,0.5410157 a 0.06615245,0.06615245 0 0 0 0.09375,-0.00586 L 8.4433594,2.5 A 0.06615245,0.06615245 0 0 0 8.4375,2.40625 Z M 7.4316406,1.6855469 8.2988281,2.4589844 8.2773438,2.484375 7.671875,1.9433594 a 0.06615245,0.06615245 0 0 0 -0.091797,0.00586 L 7.4042969,2.1445313 a 0.06615245,0.06615245 0 0 0 0.00586,0.09375 L 8.015625,2.7792969 7.9726562,2.828125 7.6074219,2.5019531 a 0.06615245,0.06615245 0 0 0 -0.09375,0.00586 l -0.037109,0.041016 -0.1914063,-0.171875 a 0.06615245,0.06615245 0 0 0 -0.09375,0.00586 l -0.34375,0.3847656 a 0.06615245,0.06615245 0 0 0 0.00391,0.09375 L 7.4589844,3.4023438 7.3300781,3.5449219 6.8671875,3.1308594 a 0.06615245,0.06615245 0 0 0 -0.091797,0.00586 l -0.1757811,0.197265 a 0.06615245,0.06615245 0 0 0 0.00391,0.09375 L 7.0664062,3.8417969 6.9902344,3.9257813 6.1210937,3.1503906 Z"
       id="path11-6-4" />
  </g>
  <g
     id="g16">
    <ellipse
       style="fill:none;fill-opacity:1;stroke:#b4b4b4;stroke-width:0.608565;stroke-linecap:round;stroke-linejoin:round;stroke-dasharray:none;stroke-opacity:1"
       id="path1-1"
       cx="19.989151"
       cy="-8.8359547"
       rx="1.6187594"
       ry="1.2706646"
       transform="matrix(0.75709556,0.65330415,-0.66256358,0.74900568,0,0)" />
    <path
       style="fill:none;fill-opacity:0.601562;stroke:#b4b4b4;stroke-width:0.608542;stroke-linecap:round;stroke-linejoin:round;stroke-dasharray:none;stroke-opacity:1"
       d="m 22.203717,5.3641184 3.76452,-4.1983641"
       id="path2-0" />
    <g
       id="rect3-6"
       transform="matrix(0.9222425,0,0,0.9222425,19.17863,0.11602545)"
       style="fill:#b4b4b4;fill-opacity:1">
      <path
         style="color:#000000;fill:#b4b4b4;fill-opacity:1;stroke-linecap:round;stroke-linejoin:round;-inkscape-stroke:none"
         d="M 6.028728,3.1558717 6.9955196,4.0198082 7.1601115,3.835621 6.6480086,3.3779998 6.8239641,3.1810961 7.336067,3.6387173 7.5519648,3.3971159 6.8965194,2.811402 7.2405096,2.4264583 7.4821113,2.6423564 7.5626857,2.5521892 7.9765296,2.922005 8.1090984,2.7736533 7.4544236,2.1886282 7.6286573,1.9936513 8.283332,2.5786764 8.393864,2.4549852 7.4270724,1.5910487 Z"
         id="path10-1" />
      <path
         style="color:#000000;fill:#b4b4b4;fill-opacity:1;stroke-linecap:round;stroke-linejoin:round;-inkscape-stroke:none"
         d="m 7.4707031,1.5410156 a 0.06615245,0.06615245 0 0 0 -0.09375,0.00586 L 5.9785156,3.1113281 a 0.06615245,0.06615245 0 0 0 0.00586,0.09375 l 0.9667969,0.8632813 a 0.06615245,0.06615245 0 0 0 0.09375,-0.00391 L 7.2089844,3.8789063 a 0.06615245,0.06615245 0 0 0 -0.00391,-0.091797 L 6.7421875,3.3730469 6.8300781,3.2753906 7.2910156,3.6875 a 0.06615245,0.06615245 0 0 0 0.09375,-0.00391 L 7.6015625,3.4414063 a 0.06615245,0.06615245 0 0 0 -0.00586,-0.09375 L 6.9902344,2.8066406 7.2460937,2.5195313 7.4375,2.6914063 a 0.06615245,0.06615245 0 0 0 0.09375,-0.00586 l 0.037109,-0.041016 0.3632812,0.3261718 a 0.06615245,0.06615245 0 0 0 0.09375,-0.00391 L 8.1582031,2.8183594 a 0.06615245,0.06615245 0 0 0 -0.00586,-0.09375 l -0.603515,-0.5410156 0.085937,-0.095703 0.6035157,0.5410157 a 0.06615245,0.06615245 0 0 0 0.09375,-0.00586 L 8.4433594,2.5 A 0.06615245,0.06615245 0 0 0 8.4375,2.40625 Z M 7.4316406,1.6855469 8.2988281,2.4589844 8.2773438,2.484375 7.671875,1.9433594 a 0.06615245,0.06615245 0 0 0 -0.091797,0.00586 L 7.4042969,2.1445313 a 0.06615245,0.06615245 0 0 0 0.00586,0.09375 L 8.015625,2.7792969 7.9726562,2.828125 7.6074219,2.5019531 a 0.06615245,0.06615245 0 0 0 -0.09375,0.00586 l -0.037109,0.041016 -0.1914063,-0.171875 a 0.06615245,0.06615245 0 0 0 -0.09375,0.00586 l -0.34375,0.3847656 a 0.06615245,0.06615245 0 0 0 0.00391,0.09375 L 7.4589844,3.4023438 7.3300781,3.5449219 6.8671875,3.1308594 a 0.06615245,0.06615245 0 0 0 -0.091797,0.00586 l -0.1757811,0.197265 a 0.06615245,0.06615245 0 0 0 0.00391,0.09375 L 7.0664062,3.8417969 6.9902344,3.9257813 6.1210937,3.1503906 Z"
         id="path11-6" />
    </g>
    <g
       id="rect12-9"
       transform="matrix(0.61969045,-0.68301901,0.68301901,0.61969045,19.128467,0.04436299)"
       style="fill:#b4b4b4;fill-opacity:1">
      <path
         style="color:#000000;fill:#b4b4b4;fill-opacity:1;stroke-linecap:round;stroke-linejoin:round;-inkscape-stroke:none"
         d="M 2.901859,6.3923869 H 3.0886735 V 7.7660223 H 2.901859 Z"
         id="path12-8" />
      <path
         style="color:#000000;fill:#b4b4b4;fill-opacity:1;stroke-linecap:round;stroke-linejoin:round;-inkscape-stroke:none"
         d="m 2.9023438,6.3261719 a 0.06615262,0.06615262 0 0 0 -0.066406,0.066406 V 7.765625 a 0.06615262,0.06615262 0 0 0 0.066406,0.066406 H 3.0878906 A 0.06615262,0.06615262 0 0 0 3.1542969,7.765625 V 6.3925781 A 0.06615262,0.06615262 0 0 0 3.0878906,6.3261719 Z M 2.96875,6.4589844 H 3.023437 V 7.6992187 H 2.96875 Z"
         id="path13-7" />
    </g>
  </g>
  <g
     id="g15">
    <g
       id="rect12-8"
       transform="matrix(0.61969045,-0.68301901,0.68301901,0.61969045,9.8671318,0.0148566)"
       style="fill:#d79641;fill-opacity:1;stroke-width:0.999737;stroke-dasharray:none">
      <path
         style="color:#000000;fill:#d79641;fill-opacity:1;stroke-width:0.999737;stroke-linecap:round;stroke-linejoin:round;stroke-dasharray:none"
         d="M 2.901859,6.3923869 H 3.0886735 V 7.7660223 H 2.901859 Z"
         id="path12-7" />
      <path
         style="color:#000000;fill:#d79641;fill-opacity:1;stroke-width:0.999737;stroke-linecap:round;stroke-linejoin:round;stroke-dasharray:none"
         d="m 2.9023438,6.3261719 a 0.06615262,0.06615262 0 0 0 -0.066406,0.066406 V 7.765625 a 0.06615262,0.06615262 0 0 0 0.066406,0.066406 H 3.0878906 A 0.06615262,0.06615262 0 0 0 3.1542969,7.765625 V 6.3925781 A 0.06615262,0.06615262 0 0 0 3.0878906,6.3261719 Z M 2.96875,6.4589844 H 3.023437 V 7.6992187 H 2.96875 Z"
         id="path13-5" />
    </g>
    <ellipse
       style="fill:none;fill-opacity:0.601562;stroke:#d79641;stroke-width:0.608565;stroke-linecap:round;stroke-linejoin:round;stroke-dasharray:none;stroke-opacity:1"
       id="path1-2"
       cx="13.052523"
       cy="-2.7856293"
       rx="1.6187594"
       ry="1.2706646"
       transform="matrix(0.75709556,0.65330415,-0.66256358,0.74900568,0,0)" />
    <path
       style="fill:#deaa87;fill-opacity:0.601562;stroke:#d79641;stroke-width:0.608542;stroke-linecap:round;stroke-linejoin:round;stroke-dasharray:none;stroke-opacity:1"
       d="m 12.943301,5.3641184 3.76452,-4.1983641"
       id="path2-8" />
  </g>
</svg>
