<?xml version="1.0" encoding="UTF-8" standalone="no"?>
<!-- Created with Inkscape (http://www.inkscape.org/) -->

<svg
   width="22.739046mm"
   height="7.417819mm"
   viewBox="0 0 22.739046 7.417819"
   version="1.1"
   id="svg1"
   inkscape:export-filename="btn_Generate.svg"
   inkscape:export-xdpi="96"
   inkscape:export-ydpi="96"
   xmlns:inkscape="http://www.inkscape.org/namespaces/inkscape"
   xmlns:sodipodi="http://sodipodi.sourceforge.net/DTD/sodipodi-0.dtd"
   xmlns:xlink="http://www.w3.org/1999/xlink"
   xmlns="http://www.w3.org/2000/svg"
   xmlns:svg="http://www.w3.org/2000/svg">
  <sodipodi:namedview
     id="namedview1"
     pagecolor="#ffffff"
     bordercolor="#000000"
     borderopacity="0.25"
     inkscape:showpageshadow="2"
     inkscape:pageopacity="0.0"
     inkscape:pagecheckerboard="0"
     inkscape:deskcolor="#d1d1d1"
     inkscape:document-units="mm" />
  <defs
     id="defs1">
    <linearGradient
       id="linearGradient23"
       inkscape:collect="always">
      <stop
         style="stop-color:#ffc9a4;stop-opacity:1;"
         offset="0"
         id="stop23" />
      <stop
         style="stop-color:#ffffff;stop-opacity:1;"
         offset="1"
         id="stop24" />
    </linearGradient>
    <linearGradient
       id="linearGradient20"
       inkscape:collect="always">
      <stop
         style="stop-color:#b4b4b4;stop-opacity:1;"
         offset="0.20803782"
         id="stop19" />
      <stop
         style="stop-color:#b4b4b4;stop-opacity:0;"
         offset="0.93380612"
         id="stop20" />
    </linearGradient>
    <linearGradient
       id="linearGradient16"
       inkscape:collect="always">
      <stop
         style="stop-color:#001f35;stop-opacity:1;"
         offset="0.20803782"
         id="stop16" />
      <stop
         style="stop-color:#001f35;stop-opacity:0;"
         offset="0.93380612"
         id="stop17" />
    </linearGradient>
    <linearGradient
       inkscape:collect="always"
       xlink:href="#linearGradient16"
       id="linearGradient17"
       x1="10.158325"
       y1="9.8889093"
       x2="12.35514"
       y2="9.8889093"
       gradientUnits="userSpaceOnUse"
       gradientTransform="matrix(0.87373151,0,0,0.87560953,-7.0467092,-4.0741473)" />
    <linearGradient
       inkscape:collect="always"
       xlink:href="#linearGradient16"
       id="linearGradient17-2"
       x1="10.158325"
       y1="9.8889093"
       x2="12.35514"
       y2="9.8889093"
       gradientUnits="userSpaceOnUse"
       gradientTransform="matrix(0.87373151,0,0,0.87560953,0.62083604,-4.0688262)" />
    <linearGradient
       inkscape:collect="always"
       xlink:href="#linearGradient20"
       id="linearGradient17-1"
       x1="10.158325"
       y1="9.8889093"
       x2="12.35514"
       y2="9.8889093"
       gradientUnits="userSpaceOnUse"
       gradientTransform="matrix(1.0148262,0,0,1.0422048,6.1214228,-5.6372953)" />
    <linearGradient
       inkscape:collect="always"
       xlink:href="#linearGradient23"
       id="linearGradient24"
       x1="9.6071167"
       y1="3.2486024"
       x2="13.453972"
       y2="3.2486024"
       gradientUnits="userSpaceOnUse"
       gradientTransform="translate(0,0.15352596)" />
  </defs>
  <g
     inkscape:label="Laag 1"
     inkscape:groupmode="layer"
     id="layer1"
     transform="translate(-0.00487459,0.00482413)">
    <rect
       style="fill:none;stroke-width:4.99999;stroke-linecap:round"
       id="rect1"
       width="100.91119"
       height="81.416992"
       x="3.2490349"
       y="3.4401543"
       rx="1.0583333" />
    <rect
       style="fill:none;stroke:#001f35;stroke-width:0.274383;stroke-linecap:round;stroke-dasharray:none;stroke-opacity:1"
       id="rect2"
       width="7.1339502"
       height="7.1339502"
       x="0.14206615"
       y="0.13236727"
       rx="1.0191358"
       ry="1.0191358" />
    <rect
       style="fill:none;stroke:#001f35;stroke-width:0.274383;stroke-linecap:round;stroke-dasharray:none;stroke-opacity:1"
       id="rect2-2"
       width="7.1339502"
       height="7.1339502"
       x="7.8149824"
       y="0.13236727"
       rx="1.0191358"
       ry="1.0191358" />
    <path
       style="fill:none;stroke:#f6f6f6;stroke-width:0.230442;stroke-linecap:round;stroke-dasharray:none;stroke-opacity:1"
       d="m 18.279473,4.6658518 3.306017,-0.04416"
       id="path18-8-3-0-2" />
    <path
       style="fill:none;stroke:none;stroke-width:0.132241;stroke-linecap:round;stroke-dasharray:none;stroke-opacity:1"
       d="M 16.778504,6.2697636 20.246073,6.256017 Z"
       id="path17-4" />
    <path
       style="fill:none;stroke:#dfdfdf;stroke-width:0.230442;stroke-linecap:round;stroke-dasharray:none;stroke-opacity:1"
       d="m 17.91108,5.192713 3.306017,-0.04416"
       id="path18-8-3-8" />
    <rect
       style="fill:none;stroke:#b4b4b4;stroke-width:0.274383;stroke-linecap:round;stroke-dasharray:none;stroke-opacity:1"
       id="rect2-6"
       width="7.1339502"
       height="7.1339502"
       x="15.4879"
       y="0.13236727"
       rx="1.0191358"
       ry="1.0191358" />
    <path
       style="fill:none;stroke:#c9c9c9;stroke-width:0.230442;stroke-linecap:round;stroke-dasharray:none;stroke-opacity:1"
       d="m 17.475784,5.7256825 3.306017,-0.04416"
       id="path18-8-9" />
    <path
       id="path10-8"
       style="fill:#ffffff;fill-opacity:1;stroke:#b4b4b4;stroke-width:0.311093;stroke-linecap:round;stroke-dasharray:none;stroke-opacity:1"
       d="m 20.344555,0.95247508 a 1.6506838,3.0210438 45.010605 0 0 -2.338414,1.21502342 1.6506838,3.0210438 45.010605 0 0 -1.210376,3.0558706 1.6428016,3.0355388 34.566967 0 0 0.0032,0.00491 1.6428016,3.0355388 34.566967 0 0 0.156803,0.1486466 A 1.6428016,3.0355388 34.566967 0 0 20.02366,3.87646 1.6428016,3.0355388 34.566967 0 0 20.163683,3.6631848 l -0.951362,-0.524047 1.425915,-0.409855 A 1.6428016,3.0355388 34.566967 0 0 20.747845,2.408831 1.6428016,3.0355388 34.566967 0 0 20.828605,1.0009977 1.6506838,3.0210438 45.010605 0 0 20.344557,0.9525255 Z" />
    <path
       style="fill:none;stroke:#b4b4b4;stroke-width:0.23332;stroke-linecap:round;stroke-dasharray:none;stroke-opacity:1"
       d="m 16.832056,6.2285151 3.62823,-0.041251"
       id="path18-2" />
    <g
       id="g25"
       transform="matrix(1.1775836,0,0,1.1895819,-2.4270722,-0.79168755)">
      <path
         style="fill:none;stroke:#92aece;stroke-width:0.195991;stroke-linecap:round;stroke-dasharray:none;stroke-opacity:1"
         d="m 11.029038,4.5841133 2.84637,-0.037102"
         id="path18-8-3-0-4" />
      <path
         style="fill:none;stroke:none;stroke-width:0.112471;stroke-linecap:round;stroke-dasharray:none;stroke-opacity:1"
         d="m 9.796227,5.9349024 2.985461,-0.011549 z"
         id="path17-7" />
      <path
         style="fill:none;stroke:#527aa6;stroke-width:0.195991;stroke-linecap:round;stroke-dasharray:none;stroke-opacity:1"
         d="m 10.711864,5.0267562 2.84637,-0.037102"
         id="path18-8-3-3" />
      <path
         style="fill:none;stroke:#224a73;stroke-width:0.195991;stroke-linecap:round;stroke-dasharray:none;stroke-opacity:1"
         d="m 10.337088,5.4745311 2.84637,-0.037102"
         id="path18-8-31" />
      <path
         id="path10-3"
         style="fill:url(#linearGradient24);fill-opacity:1;stroke:#001f35;stroke-width:0.264583;stroke-linecap:round;stroke-dasharray:none;stroke-opacity:1"
         d="m 12.866478,1.4675768 a 1.4035033,2.5701067 46.307775 0 0 -2.013297,1.0208033 1.4035033,2.5701067 46.307775 0 0 -1.0420927,2.5673928 1.4029578,2.571106 35.780683 0 0 0.00271,0.00412 A 1.4029578,2.571106 35.780683 0 0 9.9487998,5.1847738 1.4029578,2.571106 35.780683 0 0 12.590152,3.924154 1.4029578,2.571106 35.780683 0 0 12.710706,3.7449705 L 11.891661,3.3047038 13.119326,2.9603636 a 1.4029578,2.571106 35.780683 0 0 0.09437,-0.2692278 1.4029578,2.571106 35.780683 0 0 0.06953,-1.1827926 1.4035033,2.5701067 46.307775 0 0 -0.416746,-0.040724 z" />
      <path
         style="fill:none;stroke:#003658;stroke-width:0.198437;stroke-linecap:round;stroke-dasharray:none;stroke-opacity:1"
         d="M 9.8423347,5.9002475 12.966118,5.8655909"
         id="path18-6" />
      <path
         style="fill:none;stroke:url(#linearGradient17-2);stroke-width:0.264583;stroke-linecap:round;stroke-dasharray:none;stroke-opacity:1"
         d="M 11.300323,3.3359275 C 9.4090041,5.6672916 9.6191417,5.8440666 9.6191417,5.8440666 v 0"
         id="path12-5" />
    </g>
    <g
       id="g24"
       transform="matrix(1.1764053,0,0,1.1894904,-1.0685699,-0.78466738)">
      <path
         style="fill:none;stroke:#92aece;stroke-width:0.195991;stroke-linecap:round;stroke-dasharray:none;stroke-opacity:1"
         d="M 3.3660243,4.5688373 6.212394,4.5317349"
         id="path18-8-3-0" />
      <path
         style="fill:none;stroke:#527aa6;stroke-width:0.195991;stroke-linecap:round;stroke-dasharray:none;stroke-opacity:1"
         d="M 3.0488504,5.0114802 5.8952201,4.9743778"
         id="path18-8-3" />
      <path
         style="fill:none;stroke:none;stroke-width:0.112471;stroke-linecap:round;stroke-dasharray:none;stroke-opacity:1"
         d="M 2.1286818,5.9295813 5.1141428,5.918032 Z"
         id="path17" />
      <path
         style="fill:none;stroke:#001f35;stroke-width:0.198437;stroke-linecap:round;stroke-dasharray:none;stroke-opacity:1"
         d="M 2.1747895,5.8949264 5.2985727,5.8602698"
         id="path18" />
      <path
         style="fill:none;stroke:#224a73;stroke-width:0.195991;stroke-linecap:round;stroke-dasharray:none;stroke-opacity:1"
         d="M 2.6740743,5.4592551 5.520444,5.4221527"
         id="path18-8" />
      <path
         id="path10"
         style="fill:#ffffff;fill-opacity:1;stroke:#001f35;stroke-width:0.264583;stroke-linecap:round;stroke-dasharray:none;stroke-opacity:1"
         d="M 5.1989332,1.4622557 A 1.4035033,2.5701067 46.307775 0 0 3.1856357,2.483059 1.4035033,2.5701067 46.307775 0 0 2.1435431,5.0504518 1.4029578,2.571106 35.780683 0 0 2.1462531,5.0545718 1.4029578,2.571106 35.780683 0 0 2.281256,5.1794574 1.4029578,2.571106 35.780683 0 0 4.9226084,3.9188376 1.4029578,2.571106 35.780683 0 0 5.0431624,3.7396541 L 4.2241162,3.2993827 5.4517806,2.9550425 A 1.4029578,2.571106 35.780683 0 0 5.5461471,2.6858147 1.4029578,2.571106 35.780683 0 0 5.6156787,1.5030221 1.4035033,2.5701067 46.307775 0 0 5.1989324,1.4622984 Z" />
      <path
         style="fill:none;stroke:url(#linearGradient17);stroke-width:0.264583;stroke-linecap:round;stroke-dasharray:none;stroke-opacity:1"
         d="M 3.6327782,3.3306064 C 1.7414588,5.6619705 1.9515965,5.8387455 1.9515965,5.8387455 v 0"
         id="path12" />
    </g>
    <path
       style="fill:none;stroke:url(#linearGradient17-1);stroke-width:0.311093;stroke-linecap:round;stroke-dasharray:none;stroke-opacity:1"
       d="m 18.52549,3.1763022 c -2.196738,2.7749344 -1.952668,2.985343 -1.952668,2.985343 v 0"
       id="path12-56" />
  </g>
</svg>
