<svg width="85.943" height="28.036" viewBox="0 0 22.739 7.418" xmlns:xlink="http://www.w3.org/1999/xlink" xmlns="http://www.w3.org/2000/svg"><defs><linearGradient id="d"><stop style="stop-color:#969696;stop-opacity:1" offset=".208"/><stop style="stop-color:#787878;stop-opacity:0" offset=".934"/></linearGradient><linearGradient id="b"><stop style="stop-color:#d49867;stop-opacity:1" offset=".208"/><stop style="stop-color:#d49835;stop-opacity:0" offset=".934"/></linearGradient><linearGradient id="c"><stop style="stop-color:#bebebe;stop-opacity:1" offset=".208"/><stop style="stop-color:#001f35;stop-opacity:0" offset=".934"/></linearGradient><linearGradient id="a"><stop style="stop-color:#ffc9a4;stop-opacity:1" offset="0"/><stop style="stop-color:#fff;stop-opacity:1" offset="1"/></linearGradient><linearGradient xlink:href="#a" id="e" x1="9.607" y1="3.249" x2="13.454" y2="3.249" gradientUnits="userSpaceOnUse" gradientTransform="matrix(.79414 0 0 1.09192 3.175 -.937)"/><linearGradient xlink:href="#b" id="f" x1="10.158" y1="9.889" x2="12.355" y2="9.889" gradientUnits="userSpaceOnUse" gradientTransform="matrix(.69387 0 0 .9561 3.818 -5.435)"/><linearGradient xlink:href="#c" id="g" gradientUnits="userSpaceOnUse" gradientTransform="matrix(.69387 0 0 .9561 -3.855 -5.435)" x1="10.158" y1="9.889" x2="12.355" y2="9.889"/><linearGradient xlink:href="#d" id="h" gradientUnits="userSpaceOnUse" gradientTransform="matrix(.69387 0 0 .9561 11.49 -5.435)" x1="10.158" y1="9.889" x2="12.355" y2="9.889"/></defs><rect style="fill:none;stroke-width:4.99999;stroke-linecap:round" width="100.911" height="81.417" x="3.244" y="3.445" rx="1.058"/><rect style="fill:none;stroke:#001f35;stroke-width:.274383;stroke-linecap:round;stroke-dasharray:none;stroke-opacity:1" width="7.134" height="7.134" x=".137" y=".137" rx="1.019" ry="1.019"/><rect style="fill:none;stroke:#001f35;stroke-width:.274383;stroke-linecap:round;stroke-dasharray:none;stroke-opacity:1" width="7.134" height="7.134" x="7.81" y=".137" rx="1.019" ry="1.019"/><rect style="fill:none;stroke:#b4b4b4;stroke-width:.274383;stroke-linecap:round;stroke-dasharray:none;stroke-opacity:1" width="7.134" height="7.134" x="15.483" y=".137" rx="1.019" ry="1.019"/><path d="M-26.247 36.442c-.737 0-1.334.668-1.334 1.49 0 .824.54 1.388 1.334 1.491l4.841.97m2.898.58 2.186.439 8.917-4.577" style="fill:none;fill-opacity:1;stroke:#001f33;stroke-width:.605995;stroke-linecap:round;stroke-linejoin:round;stroke-miterlimit:4;stroke-dasharray:none;stroke-dashoffset:0;stroke-opacity:1" transform="matrix(.27312 0 0 .3003 16.09 -5.655)"/><path style="fill:#001f33;fill-opacity:1;stroke:#001f33;stroke-width:.605995;stroke-linecap:round;stroke-dasharray:none;stroke-opacity:1" d="m-21.402 40.393 3.067.613" transform="matrix(.27312 0 0 .3003 16.09 -5.655)"/><path style="fill:#c8c8c8;fill-opacity:1;stroke:#001f33;stroke-width:0;stroke-linecap:round;stroke-dasharray:none;stroke-opacity:1" d="M-25.794 36.738c-.943-.009-1.54 1.146-.963 1.815.421.457 1.128.467 1.716.604 2.624.535 5.265 1.04 7.881 1.584l.713.155c.01-.087-.006-.275 0-.41 0-.64.003-1.28-.002-1.92-1.194-.26-2.406-.484-3.608-.73-1.826-.358-3.65-.74-5.479-1.083-.086-.006-.171-.015-.258-.015z" transform="matrix(.27312 0 0 .3003 16.09 -5.655)"/><path style="fill:#e6e6e6;fill-opacity:1;stroke:#001f33;stroke-width:0;stroke-linecap:round;stroke-dasharray:none;stroke-opacity:1" d="m-7.703 34.17-8.735 4.41v2.297l8.72-4.402a1.29 1.908 0 0 1-.255-1.137 1.29 1.908 0 0 1 .27-1.167zm-8.74 4.425a1.29 1.908 0 0 0-.247 1.117 1.29 1.908 0 0 0 .247 1.118z" transform="matrix(.27312 0 0 .3003 16.09 -5.655)"/><path d="m-17.33 31.865-9.157 4.577 10.165 1.989 8.917-4.577z" style="fill:#001f33;fill-opacity:1;stroke:#001f33;stroke-width:.605995;stroke-linecap:round;stroke-linejoin:round;stroke-miterlimit:4;stroke-dasharray:none;stroke-dashoffset:0;stroke-opacity:1" transform="matrix(.27312 0 0 .3003 16.09 -5.655)"/><path style="fill:url(#e);fill-opacity:1;stroke:#d49867;stroke-width:.264583;stroke-linecap:round;stroke-dasharray:none;stroke-opacity:1" d="M13.393.498a1.26 2.484 30.558 0 0-1.6 1.114 1.26 2.484 30.558 0 0-.827 2.804 1.2 2.606 22.77 0 0 .002.004 1.2 2.606 22.77 0 0 .108.137 1.2 2.606 22.77 0 0 2.097-1.377 1.2 2.606 22.77 0 0 .096-.195l-.65-.481.974-.376a1.2 2.606 22.77 0 0 .075-.294 1.2 2.606 22.77 0 0 .056-1.292 1.26 2.484 30.558 0 0-.331-.044z"/><path style="fill:none;stroke:url(#f);stroke-width:.246379;stroke-linecap:round;stroke-dasharray:none;stroke-opacity:1" d="M12.299 2.65c-1.502 2.546-1.335 2.74-1.335 2.74v0"/><path d="M-26.247 36.442c-.737 0-1.334.668-1.334 1.49 0 .824.54 1.388 1.334 1.491l4.841.97m2.898.58 2.186.439 8.917-4.577" style="fill:none;fill-opacity:1;stroke:#001f33;stroke-width:.605995;stroke-linecap:round;stroke-linejoin:round;stroke-miterlimit:4;stroke-dasharray:none;stroke-dashoffset:0;stroke-opacity:1" transform="matrix(.27311 0 0 .3003 8.417 -5.641)"/><path style="fill:#001f33;fill-opacity:1;stroke:#001f33;stroke-width:.605995;stroke-linecap:round;stroke-dasharray:none;stroke-opacity:1" d="m-21.402 40.393 3.067.613" transform="matrix(.27311 0 0 .3003 8.417 -5.641)"/><path style="fill:#c8c8c8;fill-opacity:1;stroke:#001f33;stroke-width:0;stroke-linecap:round;stroke-dasharray:none;stroke-opacity:1" d="M-25.794 36.738c-.943-.009-1.54 1.146-.963 1.815.421.457 1.128.467 1.716.604 2.624.535 5.265 1.04 7.881 1.584l.713.155c.01-.087-.006-.275 0-.41 0-.64.003-1.28-.002-1.92-1.194-.26-2.406-.484-3.608-.73-1.826-.358-3.65-.74-5.479-1.083-.086-.006-.171-.015-.258-.015z" transform="matrix(.27311 0 0 .3003 8.417 -5.641)"/><path style="fill:#e6e6e6;fill-opacity:1;stroke:#001f33;stroke-width:0;stroke-linecap:round;stroke-dasharray:none;stroke-opacity:1" d="m-7.703 34.17-8.735 4.41v2.297l8.72-4.402a1.29 1.908 0 0 1-.255-1.137 1.29 1.908 0 0 1 .27-1.167zm-8.74 4.425a1.29 1.908 0 0 0-.247 1.117 1.29 1.908 0 0 0 .247 1.118z" transform="matrix(.27311 0 0 .3003 8.417 -5.641)"/><path d="m-17.33 31.865-9.157 4.577 10.165 1.989 8.917-4.577z" style="fill:#001f33;fill-opacity:1;stroke:#001f33;stroke-width:.605995;stroke-linecap:round;stroke-linejoin:round;stroke-miterlimit:4;stroke-dasharray:none;stroke-dashoffset:0;stroke-opacity:1" transform="matrix(.27311 0 0 .3003 8.417 -5.641)"/><path style="fill:#fff;fill-opacity:1;stroke:#bebebe;stroke-width:.264583;stroke-linecap:round;stroke-dasharray:none;stroke-opacity:1" d="M5.72.498a1.26 2.484 30.558 0 0-1.6 1.114 1.26 2.484 30.558 0 0-.827 2.804 1.2 2.606 22.77 0 0 .002.004 1.2 2.606 22.77 0 0 .107.137A1.2 2.606 22.77 0 0 5.5 3.18a1.2 2.606 22.77 0 0 .096-.196l-.65-.48.974-.376a1.2 2.606 22.77 0 0 .075-.294A1.2 2.606 22.77 0 0 6.05.542a1.26 2.484 30.558 0 0-.33-.044z"/><path style="fill:#fff;fill-opacity:1;stroke:url(#g);stroke-width:.246379;stroke-linecap:round;stroke-dasharray:none;stroke-opacity:1" d="M4.626 2.65C3.124 5.196 3.29 5.39 3.29 5.39v0"/><path d="M16.595 5.302c-.202 0-.365.2-.365.447 0 .248.148.417.365.448l1.322.291m.791.175.597.131 2.436-1.374" style="fill:none;fill-opacity:1;stroke:#b4b4b4;stroke-width:.173545;stroke-linecap:round;stroke-linejoin:round;stroke-miterlimit:4;stroke-dasharray:none;stroke-dashoffset:0;stroke-opacity:1"/><path style="fill:#001f33;fill-opacity:1;stroke:#b4b4b4;stroke-width:.173545;stroke-linecap:round;stroke-dasharray:none;stroke-opacity:1" d="m17.918 6.488.837.184"/><path style="fill:#c8c8c8;fill-opacity:1;stroke:#b4b4b4;stroke-width:0;stroke-linecap:round;stroke-dasharray:none;stroke-opacity:1" d="M16.718 5.39c-.257-.002-.42.345-.263.546.115.137.308.14.47.181.716.16 1.437.313 2.151.476l.195.046c.003-.026-.001-.082 0-.123V5.94c-.326-.077-.658-.145-.986-.218-.499-.108-.996-.223-1.496-.326-.024-.002-.047-.004-.07-.004z"/><path style="fill:#e6e6e6;fill-opacity:1;stroke:#b4b4b4;stroke-width:0;stroke-linecap:round;stroke-dasharray:none;stroke-opacity:1" d="m21.66 4.62-2.386 1.324v.69l2.381-1.322a.352.573 0 0 1-.07-.342.352.573 0 0 1 .074-.35zm-2.388 1.328a.352.573 0 0 0-.067.336.352.573 0 0 0 .067.335z"/><path d="m19.03 3.927-2.5 1.375 2.775.597 2.436-1.374z" style="fill:#b4b4b4;fill-opacity:1;stroke:#b4b4b4;stroke-width:.173545;stroke-linecap:round;stroke-linejoin:round;stroke-miterlimit:4;stroke-dasharray:none;stroke-dashoffset:0;stroke-opacity:1"/><path style="fill:#fff;fill-opacity:1;stroke:#969696;stroke-width:.264583;stroke-linecap:round;stroke-dasharray:none;stroke-opacity:1" d="M21.065.498a1.26 2.484 30.558 0 0-1.599 1.114 1.26 2.484 30.558 0 0-.827 2.804 1.2 2.606 22.77 0 0 .002.004 1.2 2.606 22.77 0 0 .107.137 1.2 2.606 22.77 0 0 2.098-1.377 1.2 2.606 22.77 0 0 .096-.196l-.65-.48.974-.376a1.2 2.606 22.77 0 0 .075-.294 1.2 2.606 22.77 0 0 .055-1.292 1.26 2.484 30.558 0 0-.33-.044z"/><path style="fill:#fff;fill-opacity:1;stroke:url(#h);stroke-width:.246379;stroke-linecap:round;stroke-dasharray:none;stroke-opacity:1" d="M19.972 2.65c-1.502 2.546-1.335 2.74-1.335 2.74v0"/></svg>