<?xml version="1.0" encoding="UTF-8" standalone="no"?>
<svg
   width="85.943001"
   height="28.035999"
   viewBox="0 0 22.739 7.418"
   version="1.1"
   id="svg40"
   xmlns:xlink="http://www.w3.org/1999/xlink"
   xmlns="http://www.w3.org/2000/svg"
   xmlns:svg="http://www.w3.org/2000/svg">
  <defs
     id="defs18">
    <linearGradient
       id="linearGradient51">
      <stop
         style="stop-color:#f3f3f3;stop-opacity:1;"
         offset="0"
         id="stop52" />
      <stop
         style="stop-color:#f3f3f3;stop-opacity:0;"
         offset="1"
         id="stop53" />
    </linearGradient>
    <linearGradient
       id="linearGradient49">
      <stop
         style="stop-color:#f3f3f3;stop-opacity:1;"
         offset="0"
         id="stop50" />
      <stop
         style="stop-color:#f3f3f3;stop-opacity:0;"
         offset="1"
         id="stop51" />
    </linearGradient>
    <linearGradient
       id="linearGradient48">
      <stop
         style="stop-color:#ffffff;stop-opacity:1;"
         offset="0"
         id="stop48" />
      <stop
         style="stop-color:#f3f3f3;stop-opacity:0;"
         offset="1"
         id="stop49" />
    </linearGradient>
    <linearGradient
       xlink:href="#a"
       id="k"
       gradientUnits="userSpaceOnUse"
       x1="11.741"
       y1="4.0929999"
       x2="11.771"
       y2="5.598"
       gradientTransform="rotate(90,11.36,3.642)" />
    <linearGradient
       id="f">
      <stop
         style="stop-color:#b4b4b4;stop-opacity:1"
         offset="0"
         id="stop1" />
      <stop
         style="stop-color:#b4b4b4;stop-opacity:0"
         offset="1"
         id="stop2" />
    </linearGradient>
    <linearGradient
       id="h">
      <stop
         style="stop-color:#b4b4b4;stop-opacity:1"
         offset="0"
         id="stop3" />
      <stop
         style="stop-color:#b4b4b4;stop-opacity:0"
         offset="1"
         id="stop4" />
    </linearGradient>
    <linearGradient
       id="g">
      <stop
         style="stop-color:#b4b4b4;stop-opacity:1"
         offset="0"
         id="stop5" />
      <stop
         style="stop-color:#b4b4b4;stop-opacity:0"
         offset="1"
         id="stop6" />
    </linearGradient>
    <linearGradient
       id="c">
      <stop
         style="stop-color:#001f35;stop-opacity:1"
         offset="0"
         id="stop7" />
      <stop
         style="stop-color:#001f35;stop-opacity:0"
         offset="1"
         id="stop8" />
    </linearGradient>
    <linearGradient
       id="e">
      <stop
         style="stop-color:#001f35;stop-opacity:1"
         offset="0"
         id="stop9" />
      <stop
         style="stop-color:#001f35;stop-opacity:0"
         offset="1"
         id="stop10" />
    </linearGradient>
    <linearGradient
       id="d">
      <stop
         style="stop-color:#001f35;stop-opacity:1"
         offset="0"
         id="stop11" />
      <stop
         style="stop-color:#001f35;stop-opacity:0"
         offset="1"
         id="stop12" />
    </linearGradient>
    <linearGradient
       id="b">
      <stop
         style="stop-color:#001f35;stop-opacity:1"
         offset="0"
         id="stop13" />
      <stop
         style="stop-color:#001f35;stop-opacity:0"
         offset="1"
         id="stop14" />
    </linearGradient>
    <linearGradient
       id="a">
      <stop
         style="stop-color:#597e3f;stop-opacity:1"
         offset="0"
         id="stop15" />
      <stop
         style="stop-color:#597e3f;stop-opacity:0"
         offset="1"
         id="stop16" />
    </linearGradient>
    <linearGradient
       xlink:href="#a"
       id="j"
       x1="11.741"
       y1="4.0929999"
       x2="11.771"
       y2="5.598"
       gradientUnits="userSpaceOnUse" />
    <linearGradient
       id="i">
      <stop
         style="stop-color:#b4b4b4;stop-opacity:1"
         offset="0"
         id="stop17" />
      <stop
         style="stop-color:#b4b4b4;stop-opacity:0"
         offset="1"
         id="stop18" />
    </linearGradient>
    <linearGradient
       xlink:href="#a"
       id="l"
       gradientUnits="userSpaceOnUse"
       gradientTransform="rotate(-180,11.378,3.614)"
       x1="11.741"
       y1="4.0929999"
       x2="11.771"
       y2="5.598" />
    <linearGradient
       xlink:href="#a"
       id="m"
       gradientUnits="userSpaceOnUse"
       gradientTransform="rotate(-90,11.351,3.6)"
       x1="11.741"
       y1="4.0929999"
       x2="11.771"
       y2="5.598" />
    <linearGradient
       xlink:href="#b"
       id="n"
       x1="11.741"
       y1="4.0929999"
       x2="11.771"
       y2="5.598"
       gradientUnits="userSpaceOnUse"
       gradientTransform="rotate(2.681,7.736,-159.418)" />
    <linearGradient
       xlink:href="#c"
       id="o"
       gradientUnits="userSpaceOnUse"
       gradientTransform="rotate(92.681,7.548,-0.004)"
       x1="11.741"
       y1="4.0929999"
       x2="11.771"
       y2="5.598" />
    <linearGradient
       xlink:href="#d"
       id="p"
       gradientUnits="userSpaceOnUse"
       gradientTransform="rotate(-177.319,7.562,3.7)"
       x1="11.741"
       y1="4.0929999"
       x2="11.771"
       y2="5.598" />
    <linearGradient
       xlink:href="#e"
       id="q"
       gradientUnits="userSpaceOnUse"
       gradientTransform="rotate(-87.319,7.531,7.594)"
       x1="11.741"
       y1="4.0929999"
       x2="11.771"
       y2="5.598" />
    <linearGradient
       xlink:href="#f"
       id="r"
       gradientUnits="userSpaceOnUse"
       gradientTransform="rotate(2.681,15.41,168.443)"
       x1="11.741"
       y1="4.0929999"
       x2="11.771"
       y2="5.598" />
    <linearGradient
       xlink:href="#g"
       id="s"
       gradientUnits="userSpaceOnUse"
       gradientTransform="rotate(92.681,15.22,7.318)"
       x1="11.741"
       y1="4.0929999"
       x2="11.771"
       y2="5.598" />
    <linearGradient
       xlink:href="#h"
       id="t"
       gradientUnits="userSpaceOnUse"
       gradientTransform="rotate(-177.319,15.235,3.52)"
       x1="11.741"
       y1="4.0929999"
       x2="11.771"
       y2="5.598" />
    <linearGradient
       xlink:href="#i"
       id="u"
       gradientUnits="userSpaceOnUse"
       gradientTransform="rotate(-87.319,15.204,-0.447)"
       x1="11.741"
       y1="4.0929999"
       x2="11.771"
       y2="5.598" />
    <radialGradient
       xlink:href="#linearGradient48"
       id="radialGradient49"
       cx="3.704"
       cy="3.704"
       fx="3.704"
       fy="3.704"
       r="3.7041914"
       gradientUnits="userSpaceOnUse" />
    <radialGradient
       xlink:href="#linearGradient49"
       id="radialGradient51"
       cx="11.377"
       cy="3.704"
       fx="11.377"
       fy="3.704"
       r="3.7041914"
       gradientUnits="userSpaceOnUse" />
    <radialGradient
       xlink:href="#linearGradient51"
       id="radialGradient53"
       cx="19.049999"
       cy="3.704"
       fx="19.049999"
       fy="3.704"
       r="3.7041914"
       gradientUnits="userSpaceOnUse" />
  </defs>
  <rect
     style="fill:none;stroke-width:4.99999;stroke-linecap:round"
     width="100.911"
     height="81.417"
     x="3.244"
     y="3.4449999"
     rx="1.058"
     id="rect18" />
  <rect
     style="fill:url(#radialGradient49);stroke:#001f35;stroke-width:0.274383;stroke-linecap:round;stroke-dasharray:none;stroke-opacity:1"
     width="7.1339998"
     height="7.1339998"
     x="0.13699999"
     y="0.13699999"
     rx="1.0190001"
     ry="1.0190001"
     id="rect19" />
  <rect
     style="fill:url(#radialGradient51);stroke:#001f35;stroke-width:0.274383;stroke-linecap:round;stroke-dasharray:none;stroke-opacity:1"
     width="7.1339998"
     height="7.1339998"
     x="7.8099999"
     y="0.13699999"
     rx="1.0190001"
     ry="1.0190001"
     id="rect20" />
  <rect
     style="fill:url(#radialGradient53);stroke:#b4b4b4;stroke-width:0.274383;stroke-linecap:round;stroke-dasharray:none;stroke-opacity:1"
     width="7.1339998"
     height="7.1339998"
     x="15.483"
     y="0.13699999"
     rx="1.0190001"
     ry="1.0190001"
     id="rect21" />
  <g
     id="g46">
    <g
       id="g43">
      <path
         style="fill:none;stroke:#527aa6;stroke-width:0.231968;stroke-linecap:round;stroke-dasharray:none;stroke-opacity:1"
         d="m 10.096084,5.3739429 3.351393,-0.044015"
         id="path16" />
      <path
         style="fill:none;stroke:#224a73;stroke-width:0.231968;stroke-linecap:round;stroke-dasharray:none;stroke-opacity:1"
         d="M 9.6544913,5.9068747 13.005884,5.8616707"
         id="path17" />
      <path
         style="fill:none;stroke:#003658;stroke-width:0.234863;stroke-linecap:round;stroke-dasharray:none;stroke-opacity:1"
         d="M 9.0715892,6.4124462 12.750349,6.3720005"
         id="path19" />
    </g>
    <g
       id="g41"
       transform="matrix(0.75894235,0,0,0.75894608,3.6751,0.44921353)">
      <g
         transform="rotate(-49.417,8.557,-5.044)"
         style="fill:#7cab5b;fill-opacity:1;stroke:#597e3f;stroke-opacity:1"
         id="g21">
        <circle
           style="fill:#7cab5b;fill-opacity:1;stroke:#597e3f;stroke-width:0.00972987;stroke-linecap:round;stroke-linejoin:round;stroke-dasharray:none;stroke-opacity:1"
           cx="3.8369999"
           cy="2.6919999"
           r="0.38600001"
           id="circle21" />
        <path
           style="fill:#7cab5b;fill-opacity:1;stroke:#597e3f;stroke-width:0.317506;stroke-linecap:round;stroke-linejoin:round;stroke-opacity:1"
           d="M 2.962,-0.02 C 2.54,-0.03 2.1,0.274 2.06,0.711 2.087,0.89 2.179,1.051 1.935,0.919 1.597,0.85 1.263,1.13 1.147,1.434 1.047,1.67 1.011,2.002 1.264,2.157 1.754,2.474 2.364,2.506 2.93,2.561 3.142,2.523 3.565,2.694 3.662,2.513 3.675,1.788 3.691,1.033 3.427,0.346 3.347,0.158 3.189,-0.044 2.961,-0.022 Z M 4.688,-0.021 C 5.109,-0.029 5.55,0.275 5.589,0.712 5.562,0.891 5.47,1.052 5.714,0.92 6.052,0.85 6.386,1.131 6.502,1.435 6.602,1.671 6.638,2.003 6.385,2.158 5.895,2.475 5.285,2.507 4.719,2.562 4.507,2.524 4.084,2.695 3.987,2.514 3.974,1.789 3.958,1.034 4.222,0.347 4.302,0.159 4.461,-0.043 4.688,-0.021 Z M 2.96,5.488 C 2.54,5.495 2.098,5.191 2.059,4.755 2.087,4.575 2.178,4.415 1.934,4.546 1.596,4.616 1.262,4.336 1.146,4.031 1.046,3.796 1.01,3.464 1.263,3.309 1.753,2.992 2.363,2.959 2.929,2.905 3.142,2.942 3.565,2.772 3.661,2.953 3.675,3.678 3.69,4.433 3.426,5.119 3.346,5.307 3.188,5.509 2.96,5.488 Z m 1.726,0 C 5.108,5.495 5.548,5.191 5.588,4.755 5.56,4.575 5.468,4.415 5.712,4.546 6.051,4.616 6.385,4.336 6.501,4.031 6.601,3.796 6.637,3.464 6.383,3.309 5.893,2.992 5.283,2.959 4.718,2.905 4.505,2.942 4.082,2.772 3.985,2.953 3.972,3.678 3.957,4.433 4.221,5.119 c 0.08,0.188 0.238,0.39 0.465,0.369 z"
           id="path21" />
      </g>
      <path
         style="fill:#597e3f;fill-opacity:1;stroke:#597e3f;stroke-width:0.132294;stroke-linecap:round;stroke-linejoin:round;stroke-dasharray:none;stroke-opacity:1"
         d="m 13.513,5.922 c 0.074,0.224 0.112,0.456 0.02,0.664 -0.091,0.207 0.278,-0.087 0.473,-0.105 0.083,-0.007 0.317,0.16 0.236,-0.05 C 14.165,6.233 13.995,6.007 13.861,5.814 13.387,5.116 11.928,4.086 11.928,4.086 c 0,0 1.244,0.895 1.585,1.836 z M 11.096,3.258 h 0.653 v 0.703 h -0.653 z"
         id="path22" />
      <path
         style="fill:none;fill-opacity:1;stroke:url(#j);stroke-width:0.264588;stroke-linecap:round;stroke-linejoin:round;stroke-dasharray:none;stroke-opacity:1"
         d="m 11.395,4.12 c 0.35,1.036 0.277,1.302 0.277,1.302 v 0"
         transform="rotate(2.681,11.376,3.614)"
         id="path23" />
      <path
         style="fill:none;fill-opacity:1;stroke:url(#k);stroke-width:0.264588;stroke-linecap:round;stroke-linejoin:round;stroke-dasharray:none;stroke-opacity:1"
         d="M 10.882,3.678 C 9.846,4.028 9.579,3.955 9.579,3.955 v 0"
         transform="rotate(2.681,11.376,3.614)"
         id="path24" />
      <path
         style="fill:none;fill-opacity:1;stroke:url(#l);stroke-width:0.264588;stroke-linecap:round;stroke-linejoin:round;stroke-dasharray:none;stroke-opacity:1"
         d="M 11.36,3.108 C 11.01,2.072 11.083,1.806 11.083,1.806 v 0"
         transform="rotate(2.681,11.376,3.614)"
         id="path25" />
      <path
         style="fill:none;fill-opacity:1;stroke:url(#m);stroke-width:0.264588;stroke-linecap:round;stroke-linejoin:round;stroke-dasharray:none;stroke-opacity:1"
         d="M 11.87,3.556 C 12.906,3.206 13.172,3.28 13.172,3.28 v 0"
         transform="rotate(2.681,11.376,3.614)"
         id="path26" />
    </g>
  </g>
  <g
     id="g45">
    <g
       id="g42">
      <path
         style="fill:none;stroke:#527aa6;stroke-width:0.231843;stroke-linecap:round;stroke-dasharray:none;stroke-opacity:1"
         d="M 2.4266904,5.3614586 5.7747248,5.3174475"
         id="path22-5" />
      <path
         style="fill:none;stroke:#001f35;stroke-width:0.234736;stroke-linecap:round;stroke-dasharray:none;stroke-opacity:1"
         d="M 1.3985168,6.4129677 5.0735904,6.3713356"
         id="path24-2" />
      <path
         style="fill:none;stroke:#224a73;stroke-width:0.231843;stroke-linecap:round;stroke-dasharray:none;stroke-opacity:1"
         d="M 1.9855404,5.8955396 5.3335748,5.850339"
         id="path25-5" />
    </g>
    <g
       id="g33"
       transform="matrix(0.75903988,0,0,0.75903988,1.8247901,0.44900376)">
      <circle
         style="fill:#ffffff;fill-opacity:1;stroke:none;stroke-width:0.00972987;stroke-linecap:round;stroke-linejoin:round;stroke-dasharray:none;stroke-opacity:1"
         cx="-0.315"
         cy="5.1259999"
         transform="rotate(-49.417)"
         r="0.38600001"
         id="circle26" />
      <path
         style="fill:#f3f3f3;fill-opacity:1;stroke:#001f35;stroke-width:0.317506;stroke-linecap:round;stroke-linejoin:round"
         d="M 1.059,2.473 C 0.779,2.788 0.723,3.321 1.029,3.635 1.183,3.73 1.364,3.765 1.106,3.865 0.833,4.077 0.829,4.513 0.984,4.798 1.099,5.028 1.327,5.271 1.609,5.18 2.169,5.013 2.59,4.571 3,4.177 3.11,3.991 3.514,3.781 3.44,3.59 2.898,3.108 2.335,2.606 1.641,2.36 1.447,2.297 1.191,2.287 1.059,2.473 Z M 2.182,1.162 C 2.45,0.837 2.967,0.7 3.325,0.955 3.442,1.092 3.505,1.265 3.564,0.995 3.731,0.693 4.161,0.622 4.468,0.732 4.711,0.81 4.988,0.998 4.94,1.291 4.862,1.87 4.49,2.353 4.164,2.819 3.997,2.956 3.851,3.389 3.65,3.344 3.091,2.882 2.508,2.403 2.158,1.756 2.068,1.573 2.018,1.321 2.182,1.162 Z M 5.241,6.058 C 4.973,6.383 4.455,6.52 4.098,6.266 3.98,6.128 3.918,5.955 3.858,6.225 3.691,6.527 3.261,6.598 2.955,6.489 2.711,6.411 2.435,6.223 2.482,5.929 2.562,5.351 2.932,4.867 3.259,4.402 3.426,4.265 3.572,3.832 3.772,3.877 4.332,4.338 4.914,4.817 5.264,5.465 5.355,5.648 5.405,5.899 5.241,6.058 Z M 6.364,4.747 C 6.644,4.432 6.7,3.9 6.394,3.586 6.24,3.491 6.059,3.456 6.317,3.356 6.59,3.144 6.594,2.708 6.438,2.422 6.324,2.193 6.096,1.949 5.813,2.041 5.253,2.208 4.833,2.649 4.423,3.043 4.313,3.229 3.908,3.44 3.983,3.631 4.525,4.112 5.088,4.615 5.781,4.861 5.976,4.923 6.232,4.934 6.364,4.747 Z"
         id="path27" />
      <path
         style="fill:#001f35;fill-opacity:1;stroke:#001f35;stroke-width:0.132294;stroke-linecap:round;stroke-linejoin:round;stroke-dasharray:none;stroke-opacity:1"
         d="M 5.84,5.922 C 5.914,6.146 5.952,6.378 5.86,6.586 5.769,6.793 6.138,6.499 6.333,6.481 6.415,6.474 6.65,6.641 6.569,6.431 6.492,6.233 6.322,6.007 6.188,5.814 5.714,5.116 4.255,4.086 4.255,4.086 c 0,0 1.245,0.894 1.585,1.836 z"
         id="path28" />
      <path
         style="fill:#001f35;fill-opacity:1;stroke:none;stroke-width:0.132294;stroke-linecap:round;stroke-linejoin:round;stroke-dasharray:none;stroke-opacity:1"
         d="M 3.438,3.391 H 3.953 V 3.859 H 3.438 Z"
         id="path29" />
      <path
         style="fill:none;fill-opacity:1;stroke:url(#n);stroke-width:0.264588;stroke-linecap:round;stroke-linejoin:round;stroke-dasharray:none;stroke-opacity:1"
         d="m 3.741,4.112 c 0.302,1.051 0.215,1.314 0.215,1.314 v 0"
         id="path30" />
      <path
         style="fill:none;fill-opacity:1;stroke:url(#o);stroke-width:0.264588;stroke-linecap:round;stroke-linejoin:round;stroke-dasharray:none;stroke-opacity:1"
         d="M 3.249,3.647 C 2.197,3.949 1.935,3.862 1.935,3.862 v 0"
         id="path31" />
      <path
         style="fill:none;fill-opacity:1;stroke:url(#p);stroke-width:0.264588;stroke-linecap:round;stroke-linejoin:round;stroke-dasharray:none;stroke-opacity:1"
         d="M 3.753,3.1 C 3.451,2.049 3.538,1.786 3.538,1.786 v 0"
         id="path32" />
      <path
         style="fill:none;fill-opacity:1;stroke:url(#q);stroke-width:0.264588;stroke-linecap:round;stroke-linejoin:round;stroke-dasharray:none;stroke-opacity:1"
         d="M 4.241,3.571 C 5.292,3.27 5.555,3.356 5.555,3.356 v 0"
         id="path33" />
    </g>
  </g>
  <g
     id="g47">
    <g
       id="g44">
      <path
         style="fill:none;stroke:#dfdfdf;stroke-width:0.230442;stroke-linecap:round;stroke-dasharray:none;stroke-opacity:1"
         d="m 17.819847,5.3789242 3.306,-0.044"
         id="path10" />
      <path
         style="fill:none;stroke:#c9c9c9;stroke-width:0.230442;stroke-linecap:round;stroke-dasharray:none;stroke-opacity:1"
         d="m 17.384847,5.9119242 3.306,-0.044"
         id="path11" />
      <path
         style="fill:none;stroke:#b4b4b4;stroke-width:0.23332;stroke-linecap:round;stroke-dasharray:none;stroke-opacity:1"
         d="m 16.740847,6.4149242 3.628,-0.042"
         id="path13" />
    </g>
    <g
       id="g40"
       transform="matrix(0.75903988,0,0,0.75903988,5.5226998,0.44900574)">
      <circle
         style="fill:#ffffff;fill-opacity:1;stroke:none;stroke-width:0.00972987;stroke-linecap:round;stroke-linejoin:round;stroke-dasharray:none;stroke-opacity:1"
         cx="9.6680002"
         cy="16.781"
         transform="rotate(-49.417)"
         r="0.38600001"
         id="circle33" />
      <path
         style="fill:#f3f3f3;fill-opacity:1;stroke:#b4b4b4;stroke-width:0.317506;stroke-linecap:round;stroke-linejoin:round;stroke-opacity:1"
         d="m 16.405,2.473 c -0.28,0.315 -0.336,0.848 -0.03,1.162 0.154,0.095 0.335,0.13 0.077,0.23 -0.273,0.212 -0.277,0.648 -0.122,0.933 0.115,0.23 0.343,0.473 0.626,0.382 0.56,-0.167 0.98,-0.609 1.39,-1.003 C 18.456,3.991 18.86,3.781 18.786,3.59 18.244,3.108 17.681,2.606 16.988,2.36 16.793,2.297 16.537,2.287 16.405,2.473 Z m 1.123,-1.311 c 0.268,-0.325 0.786,-0.462 1.143,-0.207 0.118,0.137 0.18,0.31 0.24,0.04 0.166,-0.302 0.596,-0.373 0.903,-0.263 0.244,0.078 0.52,0.266 0.472,0.559 C 20.208,1.87 19.836,2.353 19.51,2.819 19.343,2.956 19.197,3.389 18.996,3.344 18.437,2.882 17.854,2.403 17.505,1.756 17.413,1.573 17.363,1.321 17.528,1.162 Z m 3.059,4.896 C 20.319,6.383 19.801,6.52 19.444,6.266 19.326,6.128 19.264,5.955 19.204,6.225 19.037,6.527 18.608,6.598 18.301,6.489 18.057,6.411 17.781,6.223 17.829,5.929 c 0.078,-0.578 0.45,-1.062 0.776,-1.527 0.167,-0.137 0.313,-0.57 0.513,-0.525 0.56,0.461 1.143,0.94 1.492,1.588 0.092,0.183 0.142,0.434 -0.023,0.593 z M 21.71,4.747 C 21.99,4.432 22.046,3.9 21.74,3.586 21.586,3.491 21.405,3.456 21.663,3.356 21.936,3.144 21.94,2.708 21.785,2.422 21.67,2.193 21.442,1.949 21.16,2.041 20.6,2.208 20.179,2.649 19.769,3.043 c -0.11,0.186 -0.514,0.397 -0.44,0.588 0.542,0.481 1.105,0.984 1.799,1.23 0.194,0.062 0.45,0.073 0.582,-0.114 z"
         id="path34" />
      <path
         style="fill:#b4b4b4;fill-opacity:1;stroke:#b4b4b4;stroke-width:0.132294;stroke-linecap:round;stroke-linejoin:round;stroke-dasharray:none;stroke-opacity:1"
         d="m 21.186,5.922 c 0.074,0.224 0.112,0.456 0.02,0.664 -0.091,0.207 0.278,-0.087 0.473,-0.105 0.083,-0.007 0.317,0.16 0.236,-0.05 C 21.838,6.233 21.669,6.007 21.534,5.814 21.06,5.116 19.601,4.086 19.601,4.086 c 0,0 1.244,0.895 1.585,1.836 z"
         id="path35" />
      <path
         style="fill:#b4b4b4;fill-opacity:1;stroke:none;stroke-width:0.132294;stroke-linecap:round;stroke-linejoin:round;stroke-dasharray:none;stroke-opacity:1"
         d="m 18.784,3.391 h 0.515 v 0.468 h -0.515 z"
         id="path36" />
      <path
         style="fill:none;fill-opacity:1;stroke:url(#r);stroke-width:0.264588;stroke-linecap:round;stroke-linejoin:round;stroke-dasharray:none;stroke-opacity:1"
         d="m 19.087,4.112 c 0.302,1.051 0.216,1.314 0.216,1.314 v 0"
         id="path37" />
      <path
         style="fill:none;fill-opacity:1;stroke:url(#s);stroke-width:0.264588;stroke-linecap:round;stroke-linejoin:round;stroke-dasharray:none;stroke-opacity:1"
         d="m 18.595,3.647 c -1.052,0.302 -1.314,0.215 -1.314,0.215 v 0"
         id="path38" />
      <path
         style="fill:none;fill-opacity:1;stroke:url(#t);stroke-width:0.264588;stroke-linecap:round;stroke-linejoin:round;stroke-dasharray:none;stroke-opacity:1"
         d="M 19.1,3.1 C 18.798,2.049 18.884,1.786 18.884,1.786 v 0"
         id="path39" />
      <path
         style="fill:none;fill-opacity:1;stroke:url(#u);stroke-width:0.264588;stroke-linecap:round;stroke-linejoin:round;stroke-dasharray:none;stroke-opacity:1"
         d="M 19.587,3.571 C 20.639,3.27 20.901,3.356 20.901,3.356 v 0"
         id="path40" />
    </g>
  </g>
</svg>
