<svg width="85.943" height="28.036" viewBox="0 0 22.739 7.418" xmlns:xlink="http://www.w3.org/1999/xlink" xmlns="http://www.w3.org/2000/svg"><defs><linearGradient id="c"><stop style="stop-color:#ffc9a4;stop-opacity:1" offset="0"/><stop style="stop-color:#fff;stop-opacity:1" offset="1"/></linearGradient><linearGradient id="b"><stop style="stop-color:#b4b4b4;stop-opacity:1" offset=".208"/><stop style="stop-color:#b4b4b4;stop-opacity:0" offset=".934"/></linearGradient><linearGradient id="a"><stop style="stop-color:#001f35;stop-opacity:1" offset=".208"/><stop style="stop-color:#001f35;stop-opacity:0" offset=".934"/></linearGradient><linearGradient xlink:href="#a" id="f" x1="10.158" y1="9.889" x2="12.355" y2="9.889" gradientUnits="userSpaceOnUse" gradientTransform="matrix(.87373 0 0 .87561 -7.047 -4.074)"/><linearGradient xlink:href="#a" id="e" x1="10.158" y1="9.889" x2="12.355" y2="9.889" gradientUnits="userSpaceOnUse" gradientTransform="matrix(.87373 0 0 .87561 .62 -4.069)"/><linearGradient xlink:href="#b" id="g" x1="10.158" y1="9.889" x2="12.355" y2="9.889" gradientUnits="userSpaceOnUse" gradientTransform="matrix(1.01483 0 0 1.0422 6.121 -5.637)"/><linearGradient xlink:href="#c" id="d" x1="9.607" y1="3.249" x2="13.454" y2="3.249" gradientUnits="userSpaceOnUse" gradientTransform="translate(0 .154)"/></defs><g transform="translate(-.005 .005)"><rect style="fill:none;stroke-width:4.99999;stroke-linecap:round" width="100.911" height="81.417" x="3.249" y="3.44" rx="1.058"/><rect style="fill:none;stroke:#001f35;stroke-width:.274383;stroke-linecap:round;stroke-dasharray:none;stroke-opacity:1" width="7.134" height="7.134" x=".142" y=".132" rx="1.019" ry="1.019"/><rect style="fill:none;stroke:#001f35;stroke-width:.274383;stroke-linecap:round;stroke-dasharray:none;stroke-opacity:1" width="7.134" height="7.134" x="7.815" y=".132" rx="1.019" ry="1.019"/><path style="fill:none;stroke:#f6f6f6;stroke-width:.230442;stroke-linecap:round;stroke-dasharray:none;stroke-opacity:1" d="m18.28 4.666 3.305-.044"/><path style="fill:none;stroke:none;stroke-width:.132241;stroke-linecap:round;stroke-dasharray:none;stroke-opacity:1" d="m16.779 6.27 3.467-.014z"/><path style="fill:none;stroke:#dfdfdf;stroke-width:.230442;stroke-linecap:round;stroke-dasharray:none;stroke-opacity:1" d="m17.911 5.193 3.306-.044"/><rect style="fill:none;stroke:#b4b4b4;stroke-width:.274383;stroke-linecap:round;stroke-dasharray:none;stroke-opacity:1" width="7.134" height="7.134" x="15.488" y=".132" rx="1.019" ry="1.019"/><path style="fill:none;stroke:#c9c9c9;stroke-width:.230442;stroke-linecap:round;stroke-dasharray:none;stroke-opacity:1" d="m17.476 5.726 3.306-.044"/><path style="fill:#fff;fill-opacity:1;stroke:#b4b4b4;stroke-width:.311093;stroke-linecap:round;stroke-dasharray:none;stroke-opacity:1" d="M20.345.952a1.65 3.021 45.01 0 0-2.339 1.215 1.65 3.021 45.01 0 0-1.21 3.056 1.643 3.036 34.567 0 0 .003.005 1.643 3.036 34.567 0 0 .157.149 1.643 3.036 34.567 0 0 3.068-1.5 1.643 3.036 34.567 0 0 .14-.214l-.952-.524 1.426-.41a1.643 3.036 34.567 0 0 .11-.32A1.643 3.036 34.567 0 0 20.828 1a1.65 3.021 45.01 0 0-.483-.048z"/><path style="fill:none;stroke:#b4b4b4;stroke-width:.23332;stroke-linecap:round;stroke-dasharray:none;stroke-opacity:1" d="m16.832 6.229 3.628-.042"/><path style="fill:none;stroke:#92aece;stroke-width:.195991;stroke-linecap:round;stroke-dasharray:none;stroke-opacity:1" d="m11.029 4.584 2.846-.037" transform="matrix(1.17758 0 0 1.18958 -2.427 -.792)"/><path style="fill:none;stroke:none;stroke-width:.112471;stroke-linecap:round;stroke-dasharray:none;stroke-opacity:1" d="m9.796 5.935 2.986-.012z" transform="matrix(1.17758 0 0 1.18958 -2.427 -.792)"/><path style="fill:none;stroke:#527aa6;stroke-width:.195991;stroke-linecap:round;stroke-dasharray:none;stroke-opacity:1" d="m10.712 5.027 2.846-.037" transform="matrix(1.17758 0 0 1.18958 -2.427 -.792)"/><path style="fill:none;stroke:#224a73;stroke-width:.195991;stroke-linecap:round;stroke-dasharray:none;stroke-opacity:1" d="m10.337 5.475 2.846-.038" transform="matrix(1.17758 0 0 1.18958 -2.427 -.792)"/><path style="fill:url(#d);fill-opacity:1;stroke:#001f35;stroke-width:.264583;stroke-linecap:round;stroke-dasharray:none;stroke-opacity:1" d="M12.866 1.468a1.404 2.57 46.308 0 0-2.013 1.02 1.404 2.57 46.308 0 0-1.042 2.568 1.403 2.571 35.78 0 0 .003.004 1.403 2.571 35.78 0 0 .135.125 1.403 2.571 35.78 0 0 2.641-1.26 1.403 2.571 35.78 0 0 .12-.18l-.818-.44 1.227-.345a1.403 2.571 35.78 0 0 .095-.269 1.403 2.571 35.78 0 0 .07-1.183 1.404 2.57 46.308 0 0-.418-.04z" transform="matrix(1.17758 0 0 1.18958 -2.427 -.792)"/><path style="fill:none;stroke:#003658;stroke-width:.198437;stroke-linecap:round;stroke-dasharray:none;stroke-opacity:1" d="m9.842 5.9 3.124-.034" transform="matrix(1.17758 0 0 1.18958 -2.427 -.792)"/><path style="fill:none;stroke:url(#e);stroke-width:.264583;stroke-linecap:round;stroke-dasharray:none;stroke-opacity:1" d="M11.3 3.336C9.41 5.667 9.62 5.844 9.62 5.844v0" transform="matrix(1.17758 0 0 1.18958 -2.427 -.792)"/><g><path style="fill:none;stroke:#92aece;stroke-width:.195991;stroke-linecap:round;stroke-dasharray:none;stroke-opacity:1" d="m3.366 4.569 2.846-.037" transform="matrix(1.1764 0 0 1.18949 -1.069 -.785)"/><path style="fill:none;stroke:#527aa6;stroke-width:.195991;stroke-linecap:round;stroke-dasharray:none;stroke-opacity:1" d="m3.049 5.011 2.846-.037" transform="matrix(1.1764 0 0 1.18949 -1.069 -.785)"/><path style="fill:none;stroke:none;stroke-width:.112471;stroke-linecap:round;stroke-dasharray:none;stroke-opacity:1" d="m2.129 5.93 2.985-.012z" transform="matrix(1.1764 0 0 1.18949 -1.069 -.785)"/><path style="fill:none;stroke:#001f35;stroke-width:.198437;stroke-linecap:round;stroke-dasharray:none;stroke-opacity:1" d="m2.175 5.895 3.124-.035" transform="matrix(1.1764 0 0 1.18949 -1.069 -.785)"/><path style="fill:none;stroke:#224a73;stroke-width:.195991;stroke-linecap:round;stroke-dasharray:none;stroke-opacity:1" d="m2.674 5.46 2.846-.038" transform="matrix(1.1764 0 0 1.18949 -1.069 -.785)"/><path style="fill:#fff;fill-opacity:1;stroke:#001f35;stroke-width:.264583;stroke-linecap:round;stroke-dasharray:none;stroke-opacity:1" d="M5.199 1.462a1.404 2.57 46.308 0 0-2.013 1.021A1.404 2.57 46.308 0 0 2.144 5.05a1.403 2.571 35.78 0 0 .002.005 1.403 2.571 35.78 0 0 .135.124 1.403 2.571 35.78 0 0 2.642-1.26 1.403 2.571 35.78 0 0 .12-.18l-.819-.44 1.228-.344a1.403 2.571 35.78 0 0 .094-.27 1.403 2.571 35.78 0 0 .07-1.182 1.404 2.57 46.308 0 0-.417-.04z" transform="matrix(1.1764 0 0 1.18949 -1.069 -.785)"/><path style="fill:none;stroke:url(#f);stroke-width:.264583;stroke-linecap:round;stroke-dasharray:none;stroke-opacity:1" d="M3.633 3.33C1.74 5.663 1.952 5.84 1.952 5.84v0" transform="matrix(1.1764 0 0 1.18949 -1.069 -.785)"/></g><path style="fill:none;stroke:url(#g);stroke-width:.311093;stroke-linecap:round;stroke-dasharray:none;stroke-opacity:1" d="M18.525 3.176c-2.196 2.775-1.952 2.986-1.952 2.986v0"/></g></svg>