<svg width="85.943" height="28.036" viewBox="0 0 22.739 7.418" xmlns:xlink="http://www.w3.org/1999/xlink" xmlns="http://www.w3.org/2000/svg"><defs><linearGradient xlink:href="#e" id="x" gradientUnits="userSpaceOnUse" gradientTransform="rotate(-7.319 17.594 -83.436) scale(.75904)" x1="11.741" y1="4.093" x2="11.771" y2="5.598"/><linearGradient id="p"><stop style="stop-color:#b1c80f;stop-opacity:1" offset="0"/><stop style="stop-color:#b1c80f;stop-opacity:0" offset="1"/></linearGradient><linearGradient id="j"><stop style="stop-color:#f3f3f3;stop-opacity:1" offset="0"/><stop style="stop-color:#f3f3f3;stop-opacity:0" offset="1"/></linearGradient><linearGradient id="i"><stop style="stop-color:#fff;stop-opacity:1" offset="0"/><stop style="stop-color:#f3f3f3;stop-opacity:0" offset="1"/></linearGradient><linearGradient id="e"><stop style="stop-color:#b4b4b4;stop-opacity:1" offset="0"/><stop style="stop-color:#b4b4b4;stop-opacity:0" offset="1"/></linearGradient><linearGradient id="g"><stop style="stop-color:#b4b4b4;stop-opacity:1" offset="0"/><stop style="stop-color:#b4b4b4;stop-opacity:0" offset="1"/></linearGradient><linearGradient id="f"><stop style="stop-color:#b4b4b4;stop-opacity:1" offset="0"/><stop style="stop-color:#b4b4b4;stop-opacity:0" offset="1"/></linearGradient><linearGradient id="b"><stop style="stop-color:#001f35;stop-opacity:1" offset="0"/><stop style="stop-color:#001f35;stop-opacity:0" offset="1"/></linearGradient><linearGradient id="d"><stop style="stop-color:#001f35;stop-opacity:1" offset="0"/><stop style="stop-color:#001f35;stop-opacity:0" offset="1"/></linearGradient><linearGradient id="c"><stop style="stop-color:#001f35;stop-opacity:1" offset="0"/><stop style="stop-color:#001f35;stop-opacity:0" offset="1"/></linearGradient><linearGradient id="a"><stop style="stop-color:#001f35;stop-opacity:1" offset="0"/><stop style="stop-color:#001f35;stop-opacity:0" offset="1"/></linearGradient><linearGradient id="h"><stop style="stop-color:#b4b4b4;stop-opacity:1" offset="0"/><stop style="stop-color:#b4b4b4;stop-opacity:0" offset="1"/></linearGradient><linearGradient xlink:href="#a" id="t" x1="11.741" y1="4.093" x2="11.771" y2="5.598" gradientUnits="userSpaceOnUse" gradientTransform="rotate(-7.319 9.92 36.524) scale(.75904)"/><linearGradient xlink:href="#b" id="u" gradientUnits="userSpaceOnUse" gradientTransform="rotate(82.681 6.227 .546) scale(.75904)" x1="11.741" y1="4.093" x2="11.771" y2="5.598"/><linearGradient xlink:href="#c" id="v" gradientUnits="userSpaceOnUse" gradientTransform="rotate(172.681 6.475 2.826) scale(.75904)" x1="11.741" y1="4.093" x2="11.771" y2="5.598"/><linearGradient xlink:href="#d" id="w" gradientUnits="userSpaceOnUse" gradientTransform="rotate(-97.319 6.663 4.843) scale(.75904)" x1="11.741" y1="4.093" x2="11.771" y2="5.598"/><linearGradient id="k"><stop style="stop-color:#f3f3f3;stop-opacity:1" offset="0"/><stop style="stop-color:#f3f3f3;stop-opacity:0" offset="1"/></linearGradient><linearGradient xlink:href="#f" id="y" gradientUnits="userSpaceOnUse" gradientTransform="rotate(82.681 13.899 9.268) scale(.75904)" x1="11.741" y1="4.093" x2="11.771" y2="5.598"/><linearGradient xlink:href="#g" id="z" gradientUnits="userSpaceOnUse" gradientTransform="rotate(172.681 14.148 3.316) scale(.75904)" x1="11.741" y1="4.093" x2="11.771" y2="5.598"/><linearGradient xlink:href="#h" id="A" gradientUnits="userSpaceOnUse" gradientTransform="rotate(-97.319 14.336 -1.908) scale(.75904)" x1="11.741" y1="4.093" x2="11.771" y2="5.598"/><linearGradient xlink:href="#n" id="G" gradientUnits="userSpaceOnUse" gradientTransform="matrix(-.09656 -.74072 .75176 -.09514 10.385 11.881)" x1="11.741" y1="4.093" x2="11.771" y2="5.598"/><linearGradient id="o"><stop style="stop-color:#001f35;stop-opacity:1" offset="0"/><stop style="stop-color:#001f35;stop-opacity:.14723927" offset="1"/></linearGradient><linearGradient xlink:href="#o" id="F" gradientUnits="userSpaceOnUse" gradientTransform="matrix(-.75176 .09514 -.09656 -.74072 20.92 4.734)" x1="11.741" y1="4.093" x2="11.771" y2="5.598"/><linearGradient id="n"><stop style="stop-color:#001f35;stop-opacity:1" offset="0"/><stop style="stop-color:#001f36;stop-opacity:.15000001" offset="1"/></linearGradient><linearGradient id="l"><stop style="stop-color:#a3c193;stop-opacity:1" offset=".4"/><stop style="stop-color:#b1c8a5;stop-opacity:.50102252" offset="1"/></linearGradient><linearGradient xlink:href="#m" id="D" gradientUnits="userSpaceOnUse" gradientTransform="matrix(.75176 -.09514 .09656 .74072 3.116 1.543)" x1="11.741" y1="4.093" x2="11.771" y2="5.598"/><linearGradient id="m"><stop style="stop-color:#001f35;stop-opacity:1" offset="0"/><stop style="stop-color:#001f35;stop-opacity:.15000001" offset="1"/></linearGradient><linearGradient xlink:href="#n" id="E" gradientUnits="userSpaceOnUse" gradientTransform="matrix(.09656 .74072 -.75176 .09514 13.647 -5.6)" x1="11.741" y1="4.093" x2="11.771" y2="5.598"/><radialGradient xlink:href="#l" id="C" cx="11.138" cy="3.611" fx="11.138" fy="3.611" r="3.108" gradientTransform="matrix(.75794 0 0 .75358 3.55 .425)" gradientUnits="userSpaceOnUse"/><radialGradient xlink:href="#k" id="s" cx="19.05" cy="3.704" fx="19.05" fy="3.704" r="3.704" gradientUnits="userSpaceOnUse"/><radialGradient xlink:href="#j" id="r" cx="11.377" cy="3.704" fx="11.377" fy="3.704" r="3.704" gradientUnits="userSpaceOnUse"/><radialGradient xlink:href="#i" id="q" cx="3.704" cy="3.704" fx="3.704" fy="3.704" r="3.704" gradientUnits="userSpaceOnUse"/><radialGradient xlink:href="#p" id="B" cx="11.999" cy="3.117" fx="11.999" fy="3.117" r="2.434" gradientUnits="userSpaceOnUse"/></defs><rect style="fill:none;stroke-width:4.99999;stroke-linecap:round" width="100.911" height="81.417" x="3.244" y="3.445" rx="1.058"/><rect style="fill:url(#q);stroke:#001f35;stroke-width:.274383;stroke-linecap:round;stroke-dasharray:none;stroke-opacity:1" width="7.134" height="7.134" x=".137" y=".137" rx="1.019" ry="1.019"/><rect style="fill:url(#r);stroke:#001f35;stroke-width:.274383;stroke-linecap:round;stroke-dasharray:none;stroke-opacity:1" width="7.134" height="7.134" x="7.81" y=".137" rx="1.019" ry="1.019"/><rect style="fill:url(#s);stroke:#b4b4b4;stroke-width:.274383;stroke-linecap:round;stroke-dasharray:none;stroke-opacity:1" width="7.134" height="7.134" x="15.483" y=".137" rx="1.019" ry="1.019"/><path style="fill:none;stroke:#527aa6;stroke-width:.231843;stroke-linecap:round;stroke-dasharray:none;stroke-opacity:1" d="m2.427 5.361 3.348-.044"/><path style="fill:none;stroke:#001f35;stroke-width:.234736;stroke-linecap:round;stroke-dasharray:none;stroke-opacity:1" d="m1.399 6.413 3.675-.042"/><path style="fill:none;stroke:#224a73;stroke-width:.231843;stroke-linecap:round;stroke-dasharray:none;stroke-opacity:1" d="m1.986 5.896 3.348-.046"/><path style="fill:#001f35;fill-opacity:1;stroke:#001f35;stroke-width:.100416;stroke-linecap:round;stroke-linejoin:round;stroke-dasharray:none;stroke-opacity:1" d="M6.212 4.638c.085.157.144.326.103.493-.041.167.196-.101.34-.14.06-.017.258.077.17-.07-.084-.137-.241-.283-.367-.41-.446-.46-1.672-1.037-1.672-1.037s1.048.504 1.426 1.164z"/><circle style="fill:#fff;fill-opacity:1;stroke:none;stroke-width:.00738536;stroke-linecap:round;stroke-linejoin:round;stroke-dasharray:none;stroke-opacity:1" cx="-.541" cy="5.308" transform="rotate(-59.417)" r=".293"/><path style="fill:#f3f3f3;fill-opacity:1;stroke:#001f35;stroke-width:.251359;stroke-linecap:round;stroke-linejoin:round;stroke-dasharray:none" d="M2.184 2.69c-.168.272-.14.678.13.872.128.05.268.053.088.162-.176.194-.121.52.032.713.117.157.319.309.518.204.396-.2.653-.585.907-.934.058-.153.332-.363.252-.496-.469-.29-.956-.59-1.507-.683-.153-.021-.346.005-.42.162zm.667-1.128c.157-.279.525-.45.827-.306.105.087.175.208.184-.001.085-.248.397-.358.64-.316.193.026.424.13.427.355.018.444-.196.854-.379 1.245-.106.124-.158.467-.315.46-.478-.272-.977-.553-1.324-.99-.092-.125-.162-.307-.06-.447zm2.931 3.256c-.157.278-.526.45-.827.306-.106-.087-.175-.208-.184.001-.085.248-.397.358-.64.317-.193-.027-.424-.13-.428-.357-.016-.442.196-.853.38-1.243.106-.125.158-.468.314-.46.48.27.977.552 1.324.99.093.125.163.306.061.446zM6.45 3.69c.168-.272.14-.677-.13-.872-.128-.05-.268-.053-.088-.161.176-.195.121-.521-.033-.715-.115-.156-.318-.308-.517-.202-.397.199-.653.584-.907.932-.058.154-.333.365-.252.498.469.288.956.59 1.506.682.154.02.347-.005.421-.162z"/><path style="fill:#001f35;fill-opacity:1;stroke:none;stroke-width:.100416;stroke-linecap:round;stroke-linejoin:round;stroke-dasharray:none;stroke-opacity:1" d="m4.083 3.062.385-.068.062.35-.385.068z"/><path style="fill:none;fill-opacity:1;stroke:url(#t);stroke-width:.200833;stroke-linecap:round;stroke-linejoin:round;stroke-dasharray:none;stroke-opacity:1" d="M4.405 3.561c.364.746.334.954.334.954v0"/><path style="fill:none;fill-opacity:1;stroke:url(#u);stroke-width:.200833;stroke-linecap:round;stroke-linejoin:round;stroke-dasharray:none;stroke-opacity:1" d="M3.976 3.278c-.747.365-.954.334-.954.334v0"/><path style="fill:none;fill-opacity:1;stroke:url(#v);stroke-width:.200833;stroke-linecap:round;stroke-linejoin:round;stroke-dasharray:none;stroke-opacity:1" d="M4.28 2.803c-.364-.746-.334-.954-.334-.954v0"/><path style="fill:none;fill-opacity:1;stroke:url(#w);stroke-width:.200833;stroke-linecap:round;stroke-linejoin:round;stroke-dasharray:none;stroke-opacity:1" d="M4.707 3.09c.746-.363.954-.333.954-.333v0"/><g><path style="fill:none;stroke:#dfdfdf;stroke-width:.230442;stroke-linecap:round;stroke-dasharray:none;stroke-opacity:1" d="m17.82 5.379 3.306-.044"/><path style="fill:none;stroke:#c9c9c9;stroke-width:.230442;stroke-linecap:round;stroke-dasharray:none;stroke-opacity:1" d="m17.385 5.912 3.306-.044"/><path style="fill:none;stroke:#b4b4b4;stroke-width:.23332;stroke-linecap:round;stroke-dasharray:none;stroke-opacity:1" d="m16.74 6.415 3.629-.042"/><g><path style="fill:#b4b4b4;fill-opacity:1;stroke:#b4b4b4;stroke-width:.100416;stroke-linecap:round;stroke-linejoin:round;stroke-dasharray:none;stroke-opacity:1" d="M21.558 4.638c.085.157.144.326.103.493-.041.167.196-.101.34-.14.06-.017.258.077.17-.07-.084-.137-.24-.284-.367-.41-.446-.46-1.672-1.037-1.672-1.037s1.047.505 1.426 1.164z"/><circle style="fill:#fff;fill-opacity:1;stroke:none;stroke-width:.00738536;stroke-linecap:round;stroke-linejoin:round;stroke-dasharray:none;stroke-opacity:1" cx="7.267" cy="18.519" transform="rotate(-59.417)" r=".293"/><path style="fill:#f3f3f3;fill-opacity:1;stroke:#b4b4b4;stroke-width:.251359;stroke-linecap:round;stroke-linejoin:round;stroke-dasharray:none;stroke-opacity:1" d="M17.53 2.69c-.168.272-.14.678.13.872.128.05.268.053.088.162-.176.194-.121.52.032.713.117.157.319.309.519.203.396-.198.652-.584.906-.933.058-.153.332-.363.252-.496-.469-.29-.956-.59-1.506-.683-.154-.021-.347.005-.421.162zm.667-1.128c.157-.279.526-.45.827-.306.106.087.175.208.184-.002.085-.247.397-.357.64-.315.193.026.424.13.427.355.018.444-.196.854-.379 1.245-.106.124-.158.467-.315.46-.478-.272-.977-.553-1.323-.99-.093-.125-.164-.307-.061-.447zm2.931 3.256c-.157.278-.526.45-.827.306-.106-.087-.175-.208-.184.001-.085.248-.397.358-.64.317-.193-.027-.424-.13-.427-.357-.018-.442.196-.853.379-1.243.106-.125.158-.468.314-.46.48.27.978.551 1.325.99.092.125.163.306.06.446zm.667-1.128c.168-.272.14-.677-.13-.872-.128-.05-.268-.053-.088-.161.176-.195.121-.521-.032-.715-.116-.156-.319-.308-.518-.202-.396.199-.653.584-.907.932-.058.154-.332.365-.252.498.469.288.956.59 1.507.682.153.02.346-.005.42-.162z"/><path style="fill:#b4b4b4;fill-opacity:1;stroke:none;stroke-width:.100416;stroke-linecap:round;stroke-linejoin:round;stroke-dasharray:none;stroke-opacity:1" d="m19.43 3.062.384-.068.062.35-.385.068z"/><path style="fill:none;fill-opacity:1;stroke:url(#x);stroke-width:.200833;stroke-linecap:round;stroke-linejoin:round;stroke-dasharray:none;stroke-opacity:1" d="M19.75 3.561c.365.746.335.954.335.954v0"/><path style="fill:none;fill-opacity:1;stroke:url(#y);stroke-width:.200833;stroke-linecap:round;stroke-linejoin:round;stroke-dasharray:none;stroke-opacity:1" d="M19.322 3.278c-.747.365-.954.334-.954.334v0"/><path style="fill:none;fill-opacity:1;stroke:url(#z);stroke-width:.200833;stroke-linecap:round;stroke-linejoin:round;stroke-dasharray:none;stroke-opacity:1" d="M19.627 2.803c-.364-.746-.335-.954-.335-.954v0"/><path style="fill:none;fill-opacity:1;stroke:url(#A);stroke-width:.200833;stroke-linecap:round;stroke-linejoin:round;stroke-dasharray:none;stroke-opacity:1" d="M20.053 3.09c.747-.363.954-.333.954-.333v0"/></g></g><circle style="fill:url(#B);stroke:none;stroke-width:.251359;stroke-linecap:round;stroke-linejoin:round" cx="11.999" cy="3.117" r="2.434"/><g><path style="fill:none;stroke:#527aa6;stroke-width:.231968;stroke-linecap:round;stroke-dasharray:none;stroke-opacity:1" d="m10.096 5.374 3.351-.044"/><path style="fill:none;stroke:#224a73;stroke-width:.231968;stroke-linecap:round;stroke-dasharray:none;stroke-opacity:1" d="m9.654 5.907 3.352-.045"/><path style="fill:none;stroke:#003658;stroke-width:.234863;stroke-linecap:round;stroke-dasharray:none;stroke-opacity:1" d="m9.072 6.412 3.678-.04"/><g><path style="fill:#001f35;fill-opacity:1;stroke:#001f35;stroke-width:.0995316;stroke-linecap:round;stroke-linejoin:round;stroke-dasharray:none;stroke-opacity:1" d="M13.884 4.57c.085.155.144.32.103.486-.041.164.196-.1.339-.139.06-.016.258.077.17-.067-.084-.136-.24-.28-.366-.404-.446-.452-1.67-1.02-1.67-1.02s1.047.495 1.424 1.144z"/><ellipse style="fill:#fff;fill-opacity:1;stroke:none;stroke-width:.00732059;stroke-linecap:round;stroke-linejoin:round;stroke-dasharray:none;stroke-opacity:1" cx="3.325" cy="11.871" transform="matrix(.51438 -.85756 .86416 .50321 0 0)" rx=".289" ry=".291"/><path style="fill:url(#C);fill-opacity:1;stroke:#001f35;stroke-width:.251359;stroke-linecap:round;stroke-linejoin:round;stroke-dasharray:none" d="M9.862 2.653c-.168.268-.14.668.13.859.128.05.267.052.088.16-.176.19-.121.512.032.701.116.154.318.304.517.2.396-.195.652-.575.906-.918.057-.151.331-.358.251-.489-.468-.284-.954-.58-1.505-.671-.153-.021-.345.005-.42.158zm.665-1.11c.158-.273.526-.44.826-.3.106.086.175.205.184-.001.085-.244.397-.352.64-.311.192.026.423.128.426.35.018.436-.196.84-.378 1.224-.107.123-.159.46-.315.453-.478-.267-.976-.544-1.322-.974-.092-.123-.162-.302-.06-.44zm2.928 3.205c-.157.274-.526.441-.826.301-.106-.086-.175-.205-.184 0-.085.245-.397.353-.64.312-.192-.026-.423-.128-.426-.35-.017-.436.196-.84.379-1.224.106-.123.158-.46.314-.453.478.267.976.543 1.322.975.092.122.163.3.061.439zm.666-1.11c.167-.268.14-.667-.13-.858-.128-.05-.268-.052-.088-.159.176-.191.121-.512-.033-.703-.115-.153-.318-.303-.517-.199-.396.196-.651.574-.905.917-.058.151-.332.36-.251.49.468.283.954.58 1.504.671.153.02.346-.004.42-.16z"/><path style="fill:#001f35;fill-opacity:1;stroke:none;stroke-width:.0995316;stroke-linecap:round;stroke-linejoin:round;stroke-dasharray:none;stroke-opacity:1" d="m11.758 3.02.385-.067.061.345-.384.066z"/><path style="fill:none;fill-opacity:1;stroke:url(#D);stroke-width:.199063;stroke-linecap:round;stroke-linejoin:round;stroke-dasharray:none;stroke-opacity:1" d="M12.08 3.511c.363.734.333.939.333.939v0"/><path style="fill:none;fill-opacity:1;stroke:url(#E);stroke-width:.199063;stroke-linecap:round;stroke-linejoin:round;stroke-dasharray:none;stroke-opacity:1" d="M11.65 3.233c-.745.358-.952.328-.952.328v0"/><path style="fill:none;fill-opacity:1;stroke:url(#F);stroke-width:.199063;stroke-linecap:round;stroke-linejoin:round;stroke-dasharray:none;stroke-opacity:1" d="M11.955 2.765c-.364-.734-.333-.938-.333-.938v0"/><path style="fill:none;fill-opacity:1;stroke:url(#G);stroke-width:.199063;stroke-linecap:round;stroke-linejoin:round;stroke-dasharray:none;stroke-opacity:1" d="M12.381 3.048c.745-.357.953-.328.953-.328v0"/></g></g></svg>