<svg width="85.943" height="28.036" viewBox="0 0 22.739 7.418" xmlns:xlink="http://www.w3.org/1999/xlink" xmlns="http://www.w3.org/2000/svg"><defs><linearGradient id="a"><stop style="stop-color:#fff;stop-opacity:.85000002" offset=".028"/><stop style="stop-color:#fff;stop-opacity:.495702" offset=".226"/><stop style="stop-color:#fff;stop-opacity:.85000002" offset=".901"/></linearGradient><linearGradient id="b"><stop style="stop-color:#fff;stop-opacity:.85000002" offset=".058"/><stop style="stop-color:#fff;stop-opacity:.495702" offset=".226"/><stop style="stop-color:#fff;stop-opacity:.85000002" offset=".895"/></linearGradient><linearGradient xlink:href="#a" id="c" x1=".868" y1="3.248" x2="6.411" y2=".903" gradientUnits="userSpaceOnUse" gradientTransform="translate(.019)"/><linearGradient xlink:href="#b" id="d" gradientUnits="userSpaceOnUse" gradientTransform="translate(7.686 -.003)" x1=".868" y1="3.248" x2="6.411" y2=".903"/><linearGradient xlink:href="#b" id="e" gradientUnits="userSpaceOnUse" gradientTransform="translate(15.348 -.027)" x1=".868" y1="3.248" x2="6.411" y2=".903"/></defs><rect style="fill:none;stroke:#001f35;stroke-width:.274383;stroke-linecap:round;stroke-dasharray:none;stroke-opacity:1" width="7.134" height="7.134" x=".137" y=".137" rx="1.019" ry="1.019"/><rect style="fill:none;stroke:#001f35;stroke-width:.274383;stroke-linecap:round;stroke-dasharray:none;stroke-opacity:1" width="7.134" height="7.134" x="7.81" y=".137" rx="1.019" ry="1.019"/><rect style="fill:none;stroke:#b4b4b4;stroke-width:.274383;stroke-linecap:round;stroke-dasharray:none;stroke-opacity:1" width="7.134" height="7.134" x="15.483" y=".137" rx="1.019" ry="1.019"/><path style="fill:#8dd35f;stroke:#001f35;stroke-width:.529177;stroke-linecap:round;stroke-dasharray:none;stroke-opacity:1" d="m8.81 5.874 5.308-.053"/><path style="fill:#8dd35f;stroke:#1f4a6d;stroke-width:.529177;stroke-linecap:round;stroke-dasharray:none;stroke-opacity:1" d="m1.137 5.874 5.308-.053"/><path style="fill:none;stroke:#001f35;stroke-width:1.32294;stroke-linecap:round;stroke-dasharray:none;stroke-opacity:1" d="M1.215 3.635S2.97 5.47 3.391 5.439c.355-.026 2.76-4.033 2.76-4.033"/><path style="fill:none;stroke:url(#c);stroke-width:.793765;stroke-linecap:round;stroke-dasharray:none;stroke-opacity:1" d="M1.228 3.648s1.754 1.834 2.176 1.804c.355-.026 2.76-4.033 2.76-4.033"/><path style="fill:none;stroke:#7cab5b;stroke-width:1.32294;stroke-linecap:round;stroke-dasharray:none;stroke-opacity:1" d="M8.888 3.635s1.754 1.835 2.176 1.804c.355-.026 2.76-4.033 2.76-4.033"/><path style="fill:#8dd35f;stroke:#999;stroke-width:.529177;stroke-linecap:round;stroke-dasharray:none;stroke-opacity:1" d="m16.484 5.874 5.307-.053"/><path style="fill:none;stroke:#bcbcbc;stroke-width:1.32294;stroke-linecap:round;stroke-dasharray:none;stroke-opacity:1" d="M16.561 3.635s1.754 1.835 2.176 1.804c.355-.026 2.76-4.033 2.76-4.033"/><path style="opacity:.60793;fill:none;stroke:url(#d);stroke-width:.661471;stroke-linecap:round;stroke-dasharray:none;stroke-opacity:1" d="M8.895 3.644s1.754 1.835 2.176 1.804c.355-.026 2.76-4.033 2.76-4.033"/><path style="opacity:.60793;fill:none;stroke:url(#e);stroke-width:.661471;stroke-linecap:round;stroke-dasharray:none;stroke-opacity:1" d="M16.558 3.62s1.754 1.835 2.176 1.805c.354-.026 2.759-4.033 2.759-4.033"/></svg>