<svg width="85.943" height="28.036" viewBox="0 0 22.739 7.418" xmlns:xlink="http://www.w3.org/1999/xlink" xmlns="http://www.w3.org/2000/svg"><defs><linearGradient xlink:href="#a" id="o" x1="11.741" y1="4.093" x2="11.771" y2="5.598" gradientUnits="userSpaceOnUse" gradientTransform="rotate(2.681 7.736 -159.418)"/><linearGradient id="n"><stop style="stop-color:#b1c80f;stop-opacity:1" offset="0"/><stop style="stop-color:#b1c810;stop-opacity:0" offset="1"/></linearGradient><linearGradient id="i"><stop style="stop-color:#001f35;stop-opacity:1" offset="0"/><stop style="stop-color:#001f35;stop-opacity:.15000001" offset="1"/></linearGradient><linearGradient id="l"><stop style="stop-color:#001f35;stop-opacity:1" offset="0"/><stop style="stop-color:#001f36;stop-opacity:.15000001" offset="1"/></linearGradient><linearGradient id="k"><stop style="stop-color:#001f35;stop-opacity:1" offset="0"/><stop style="stop-color:#001f35;stop-opacity:.14723927" offset="1"/></linearGradient><linearGradient id="m"><stop style="stop-color:#a8c093;stop-opacity:1" offset=".405"/><stop style="stop-color:#b1c8a5;stop-opacity:.50102252" offset="1"/></linearGradient><linearGradient id="e"><stop style="stop-color:#b4b4b4;stop-opacity:1" offset="0"/><stop style="stop-color:#b4b4b4;stop-opacity:0" offset="1"/></linearGradient><linearGradient id="g"><stop style="stop-color:#b4b4b4;stop-opacity:1" offset="0"/><stop style="stop-color:#b4b4b4;stop-opacity:0" offset="1"/></linearGradient><linearGradient id="f"><stop style="stop-color:#b4b4b4;stop-opacity:1" offset="0"/><stop style="stop-color:#b4b4b4;stop-opacity:0" offset="1"/></linearGradient><linearGradient id="b"><stop style="stop-color:#001f35;stop-opacity:1" offset="0"/><stop style="stop-color:#001f35;stop-opacity:0" offset="1"/></linearGradient><linearGradient id="d"><stop style="stop-color:#001f35;stop-opacity:1" offset="0"/><stop style="stop-color:#001f35;stop-opacity:0" offset="1"/></linearGradient><linearGradient id="c"><stop style="stop-color:#001f35;stop-opacity:1" offset="0"/><stop style="stop-color:#001f35;stop-opacity:0" offset="1"/></linearGradient><linearGradient id="a"><stop style="stop-color:#001f35;stop-opacity:1" offset="0"/><stop style="stop-color:#001f35;stop-opacity:0" offset="1"/></linearGradient><linearGradient id="h"><stop style="stop-color:#b4b4b4;stop-opacity:1" offset="0"/><stop style="stop-color:#b4b4b4;stop-opacity:0" offset="1"/></linearGradient><linearGradient id="j"><stop style="stop-color:#001f35;stop-opacity:1" offset="0"/><stop style="stop-color:#001f36;stop-opacity:.15000001" offset="1"/></linearGradient><linearGradient xlink:href="#b" id="p" gradientUnits="userSpaceOnUse" gradientTransform="rotate(92.681 7.548 -.004)" x1="11.741" y1="4.093" x2="11.771" y2="5.598"/><linearGradient xlink:href="#c" id="q" gradientUnits="userSpaceOnUse" gradientTransform="rotate(-177.319 7.562 3.7)" x1="11.741" y1="4.093" x2="11.771" y2="5.598"/><linearGradient xlink:href="#d" id="r" gradientUnits="userSpaceOnUse" gradientTransform="rotate(-87.319 7.531 7.594)" x1="11.741" y1="4.093" x2="11.771" y2="5.598"/><linearGradient xlink:href="#e" id="x" gradientUnits="userSpaceOnUse" gradientTransform="rotate(2.681 15.41 168.443)" x1="11.741" y1="4.093" x2="11.771" y2="5.598"/><linearGradient xlink:href="#f" id="y" gradientUnits="userSpaceOnUse" gradientTransform="rotate(92.681 15.22 7.318)" x1="11.741" y1="4.093" x2="11.771" y2="5.598"/><linearGradient xlink:href="#g" id="z" gradientUnits="userSpaceOnUse" gradientTransform="rotate(-177.319 15.235 3.52)" x1="11.741" y1="4.093" x2="11.771" y2="5.598"/><linearGradient xlink:href="#h" id="A" gradientUnits="userSpaceOnUse" gradientTransform="rotate(-87.319 15.204 -.447)" x1="11.741" y1="4.093" x2="11.771" y2="5.598"/><linearGradient xlink:href="#i" id="t" gradientUnits="userSpaceOnUse" gradientTransform="rotate(-7.319 11.17 5.204)" x1="11.741" y1="4.093" x2="11.771" y2="5.598"/><linearGradient xlink:href="#j" id="u" gradientUnits="userSpaceOnUse" gradientTransform="rotate(82.681 11.265 3.522)" x1="11.741" y1="4.093" x2="11.771" y2="5.598"/><linearGradient xlink:href="#k" id="v" gradientUnits="userSpaceOnUse" gradientTransform="rotate(172.681 11.275 3.602)" x1="11.741" y1="4.093" x2="11.771" y2="5.598"/><linearGradient xlink:href="#l" id="w" gradientUnits="userSpaceOnUse" gradientTransform="rotate(-97.319 11.243 3.687)" x1="11.741" y1="4.093" x2="11.771" y2="5.598"/><radialGradient xlink:href="#m" id="s" cx="11.138" cy="3.611" fx="11.138" fy="3.611" r="3.108" gradientTransform="matrix(1 0 0 1.00908 0 -.033)" gradientUnits="userSpaceOnUse"/><radialGradient xlink:href="#n" id="B" cx="11.377" cy="3.704" fx="11.377" fy="3.704" r="3.704" gradientUnits="userSpaceOnUse"/></defs><rect style="fill:none;stroke-width:4.99999;stroke-linecap:round" width="100.911" height="81.417" x="3.244" y="3.445" rx="1.058"/><rect style="fill:none;stroke:#001f35;stroke-width:.274383;stroke-linecap:round;stroke-dasharray:none;stroke-opacity:1" width="7.134" height="7.134" x=".137" y=".137" rx="1.019" ry="1.019"/><rect style="fill:none;stroke:#b4b4b4;stroke-width:.274383;stroke-linecap:round;stroke-dasharray:none;stroke-opacity:1" width="7.134" height="7.134" x="15.483" y=".137" rx="1.019" ry="1.019"/><g transform="rotate(-10 3.594 5.018)"><circle style="fill:#fff;fill-opacity:1;stroke:none;stroke-width:.00972987;stroke-linecap:round;stroke-linejoin:round;stroke-dasharray:none;stroke-opacity:1" cx="-.315" cy="5.126" transform="rotate(-49.417)" r=".386"/><path style="fill:#f3f3f3;fill-opacity:1;stroke:#001f35;stroke-width:.317506;stroke-linecap:round;stroke-linejoin:round" d="M1.059 2.473c-.28.315-.336.848-.03 1.162.154.095.335.13.077.23-.273.212-.277.648-.122.933.115.23.343.473.625.382.56-.167.981-.609 1.391-1.003.11-.186.514-.396.44-.587-.542-.482-1.105-.984-1.799-1.23-.194-.063-.45-.073-.582.113zm1.123-1.311C2.45.837 2.967.7 3.325.955c.117.137.18.31.239.04.167-.302.597-.373.904-.263.243.078.52.266.472.559-.078.579-.45 1.062-.776 1.528-.167.137-.313.57-.514.525-.559-.462-1.142-.941-1.492-1.588-.09-.183-.14-.435.024-.594zm3.059 4.896c-.268.325-.786.462-1.143.208-.118-.138-.18-.311-.24-.041-.167.302-.597.373-.903.264-.244-.078-.52-.266-.473-.56.08-.578.45-1.062.777-1.527.167-.137.313-.57.513-.525.56.461 1.142.94 1.492 1.588.091.183.141.434-.023.593zm1.123-1.311c.28-.315.336-.847.03-1.161-.154-.095-.335-.13-.077-.23.273-.212.277-.648.121-.934-.114-.229-.342-.473-.625-.381-.56.167-.98.608-1.39 1.002-.11.186-.515.397-.44.588.542.481 1.105.984 1.798 1.23.195.062.451.073.583-.114z"/><path style="fill:#001f35;fill-opacity:1;stroke:#001f35;stroke-width:.132294;stroke-linecap:round;stroke-linejoin:round;stroke-dasharray:none;stroke-opacity:1" d="M5.84 5.922c.074.224.112.456.02.664-.091.207.278-.087.473-.105.082-.007.317.16.236-.05-.077-.198-.247-.424-.381-.617-.474-.698-1.933-1.728-1.933-1.728S5.5 4.98 5.84 5.922z"/><path style="fill:#001f35;fill-opacity:1;stroke:none;stroke-width:.132294;stroke-linecap:round;stroke-linejoin:round;stroke-dasharray:none;stroke-opacity:1" d="M3.438 3.391h.515v.468h-.515z"/><path style="fill:none;fill-opacity:1;stroke:url(#o);stroke-width:.264588;stroke-linecap:round;stroke-linejoin:round;stroke-dasharray:none;stroke-opacity:1" d="M3.741 4.112c.302 1.051.215 1.314.215 1.314v0"/><path style="fill:none;fill-opacity:1;stroke:url(#p);stroke-width:.264588;stroke-linecap:round;stroke-linejoin:round;stroke-dasharray:none;stroke-opacity:1" d="M3.249 3.647c-1.052.302-1.314.215-1.314.215v0"/><path style="fill:none;fill-opacity:1;stroke:url(#q);stroke-width:.264588;stroke-linecap:round;stroke-linejoin:round;stroke-dasharray:none;stroke-opacity:1" d="M3.753 3.1c-.302-1.051-.215-1.314-.215-1.314v0"/><path style="fill:none;fill-opacity:1;stroke:url(#r);stroke-width:.264588;stroke-linecap:round;stroke-linejoin:round;stroke-dasharray:none;stroke-opacity:1" d="M4.241 3.571c1.051-.301 1.314-.215 1.314-.215v0"/></g><circle style="fill:#fff;fill-opacity:1;stroke:none;stroke-width:.00972987;stroke-linecap:round;stroke-linejoin:round;stroke-dasharray:none;stroke-opacity:1" cx="2.571" cy="11.385" transform="rotate(-59.417)" r=".386"/><path style="fill:url(#s);fill-opacity:1;stroke:#001f35;stroke-width:.317506;stroke-linecap:round;stroke-linejoin:round" d="M8.329 2.952c-.221.359-.184.893.172 1.15.168.066.352.07.116.212-.232.257-.16.687.042.94.153.207.42.407.681.268.523-.262.86-.77 1.196-1.23.076-.202.437-.478.331-.654-.617-.38-1.259-.777-1.985-.899-.202-.028-.456.007-.553.213zm.878-1.486c.207-.367.693-.592 1.09-.403.139.115.23.274.242-.002.112-.326.523-.47.845-.416.252.035.558.172.561.469.024.583-.258 1.124-.498 1.64-.141.163-.21.615-.415.606-.631-.358-1.289-.729-1.746-1.305-.12-.165-.213-.404-.08-.59zm3.863 4.29c-.208.367-.694.592-1.09.403-.14-.115-.231-.275-.243.002-.112.326-.523.47-.844.416-.254-.034-.558-.171-.563-.469-.021-.583.259-1.124.5-1.639.14-.164.21-.615.414-.606.632.357 1.288.728 1.745 1.305.122.164.215.403.08.588zm.878-1.486c.221-.359.184-.893-.172-1.149-.168-.066-.353-.07-.116-.213.232-.256.16-.686-.043-.94-.152-.206-.419-.407-.682-.267-.522.261-.86.769-1.194 1.228-.076.202-.439.48-.332.655.618.38 1.26.778 1.985.9.202.027.456-.007.554-.214z"/><path style="fill:#001f35;fill-opacity:1;stroke:#001f35;stroke-width:.132294;stroke-linecap:round;stroke-linejoin:round;stroke-dasharray:none;stroke-opacity:1" d="M13.636 5.518c.112.208.19.43.135.65-.054.22.259-.133.448-.185.08-.021.34.103.223-.09-.11-.182-.317-.375-.482-.542-.588-.605-2.204-1.366-2.204-1.366s1.382.664 1.88 1.533z"/><path style="fill:#001f35;fill-opacity:1;stroke:none;stroke-width:.132294;stroke-linecap:round;stroke-linejoin:round;stroke-dasharray:none;stroke-opacity:1" d="m10.83 3.443.508-.09.081.461-.507.09z"/><path style="fill:none;fill-opacity:1;stroke:url(#t);stroke-width:.264588;stroke-linecap:round;stroke-linejoin:round;stroke-dasharray:none;stroke-opacity:1" d="M11.255 4.1c.48.983.44 1.257.44 1.257v0"/><path style="fill:none;fill-opacity:1;stroke:url(#u);stroke-width:.264588;stroke-linecap:round;stroke-linejoin:round;stroke-dasharray:none;stroke-opacity:1" d="M10.69 3.728c-.984.48-1.257.44-1.257.44v0"/><path style="fill:none;fill-opacity:1;stroke:url(#v);stroke-width:.264588;stroke-linecap:round;stroke-linejoin:round;stroke-dasharray:none;stroke-opacity:1" d="M11.09 3.101c-.48-.982-.44-1.256-.44-1.256v0"/><path style="fill:none;fill-opacity:1;stroke:url(#w);stroke-width:.264588;stroke-linecap:round;stroke-linejoin:round;stroke-dasharray:none;stroke-opacity:1" d="M11.653 3.48c.983-.478 1.257-.44 1.257-.44v0"/><g transform="rotate(-10 18.94 5.007)"><circle style="fill:#fff;fill-opacity:1;stroke:none;stroke-width:.00972987;stroke-linecap:round;stroke-linejoin:round;stroke-dasharray:none;stroke-opacity:1" cx="9.668" cy="16.781" transform="rotate(-49.417)" r=".386"/><path style="fill:#f3f3f3;fill-opacity:1;stroke:#b4b4b4;stroke-width:.317506;stroke-linecap:round;stroke-linejoin:round;stroke-opacity:1" d="M16.405 2.473c-.28.315-.336.848-.03 1.162.154.095.335.13.077.23-.273.212-.277.648-.122.933.115.23.343.473.626.382.56-.167.98-.609 1.39-1.003.11-.186.514-.396.44-.587-.542-.482-1.105-.984-1.798-1.23-.195-.063-.451-.073-.583.113zm1.123-1.311c.268-.325.786-.462 1.143-.207.118.137.18.31.24.04.166-.302.596-.373.903-.263.244.078.52.266.472.559-.078.579-.45 1.062-.776 1.528-.167.137-.313.57-.514.525-.559-.462-1.142-.941-1.491-1.588-.092-.183-.142-.435.023-.594zm3.059 4.896c-.268.325-.786.462-1.143.208-.118-.138-.18-.311-.24-.041-.167.302-.596.373-.903.264-.244-.078-.52-.266-.472-.56.078-.578.45-1.062.776-1.527.167-.137.313-.57.513-.525.56.461 1.143.94 1.492 1.588.092.183.142.434-.023.593zm1.123-1.311c.28-.315.336-.847.03-1.161-.154-.095-.335-.13-.077-.23.273-.212.277-.648.122-.934-.115-.229-.343-.473-.625-.381-.56.167-.981.608-1.391 1.002-.11.186-.514.397-.44.588.542.481 1.105.984 1.799 1.23.194.062.45.073.582-.114z"/><path style="fill:#b4b4b4;fill-opacity:1;stroke:#b4b4b4;stroke-width:.132294;stroke-linecap:round;stroke-linejoin:round;stroke-dasharray:none;stroke-opacity:1" d="M21.186 5.922c.074.224.112.456.02.664-.091.207.278-.087.473-.105.083-.007.317.16.236-.05-.077-.198-.246-.424-.381-.617-.474-.698-1.933-1.728-1.933-1.728s1.244.895 1.585 1.836z"/><path style="fill:#b4b4b4;fill-opacity:1;stroke:none;stroke-width:.132294;stroke-linecap:round;stroke-linejoin:round;stroke-dasharray:none;stroke-opacity:1" d="M18.784 3.391h.515v.468h-.515z"/><path style="fill:none;fill-opacity:1;stroke:url(#x);stroke-width:.264588;stroke-linecap:round;stroke-linejoin:round;stroke-dasharray:none;stroke-opacity:1" d="M19.087 4.112c.302 1.051.216 1.314.216 1.314v0"/><path style="fill:none;fill-opacity:1;stroke:url(#y);stroke-width:.264588;stroke-linecap:round;stroke-linejoin:round;stroke-dasharray:none;stroke-opacity:1" d="M18.595 3.647c-1.052.302-1.314.215-1.314.215v0"/><path style="fill:none;fill-opacity:1;stroke:url(#z);stroke-width:.264588;stroke-linecap:round;stroke-linejoin:round;stroke-dasharray:none;stroke-opacity:1" d="M19.1 3.1c-.302-1.051-.216-1.314-.216-1.314v0"/><path style="fill:none;fill-opacity:1;stroke:url(#A);stroke-width:.264588;stroke-linecap:round;stroke-linejoin:round;stroke-dasharray:none;stroke-opacity:1" d="M19.587 3.571c1.052-.301 1.314-.215 1.314-.215v0"/></g><rect style="fill:url(#B);fill-opacity:.20177;stroke:#001f35;stroke-width:.274383;stroke-linecap:round;stroke-dasharray:none;stroke-opacity:1" width="7.134" height="7.134" x="7.81" y=".137" rx="1.019" ry="1.019"/></svg>