<?xml version="1.0" encoding="UTF-8" standalone="no"?>
<svg
   width="85.943001"
   height="28.035999"
   viewBox="0 0 22.739 7.418"
   version="1.1"
   id="svg21"
   xmlns="http://www.w3.org/2000/svg"
   xmlns:svg="http://www.w3.org/2000/svg">
  <defs
     id="defs21" />
  <path
     style="fill:#001f35;fill-opacity:1;stroke:#20496c;stroke-width:0.285148;stroke-linecap:round;stroke-dasharray:none;stroke-opacity:1"
     d="M 1.372,4.376 H 4.687"
     id="path1" />
  <path
     style="fill:#e3f4d7;fill-opacity:1;stroke:#5179a7;stroke-width:0.285148;stroke-linecap:round;stroke-dasharray:none;stroke-opacity:1"
     d="M 1.372,3.45 H 4.687"
     id="path2" />
  <path
     style="fill:#e3f4d7;fill-opacity:1;stroke:#94adce;stroke-width:0.285149;stroke-linecap:round;stroke-dasharray:none;stroke-opacity:1"
     d="M 1.372,2.524 H 4.687"
     id="path3" />
  <path
     style="fill:#e3f4d7;fill-opacity:1;stroke:#dfe3e8;stroke-width:0.285149;stroke-linecap:round;stroke-dasharray:none;stroke-opacity:1"
     d="M 1.372,1.598 H 4.687"
     id="path4" />
  <rect
     style="fill:none;stroke-width:4.99999;stroke-linecap:round"
     width="100.911"
     height="81.417"
     x="3.244"
     y="3.4449999"
     rx="1.058"
     id="rect4" />
  <rect
     style="fill:none;stroke:#001f35;stroke-width:0.274383;stroke-linecap:round;stroke-dasharray:none;stroke-opacity:1"
     width="7.1339998"
     height="7.1339998"
     x="0.13699999"
     y="0.13699999"
     rx="1.0190001"
     ry="1.0190001"
     id="rect5" />
  <rect
     style="fill:none;stroke:#001f35;stroke-width:0.274383;stroke-linecap:round;stroke-dasharray:none;stroke-opacity:1"
     width="7.1339998"
     height="7.1339998"
     x="7.8099999"
     y="0.13699999"
     rx="1.0190001"
     ry="1.0190001"
     id="rect6" />
  <rect
     style="fill:none;stroke:#b4b4b4;stroke-width:0.274383;stroke-linecap:round;stroke-dasharray:none;stroke-opacity:1"
     width="7.1339998"
     height="7.1339998"
     x="15.483"
     y="0.13699999"
     rx="1.0190001"
     ry="1.0190001"
     id="rect7" />
  <path
     style="fill:#ffffff;fill-opacity:1;stroke:#000d35;stroke-width:0.252438;stroke-linecap:round;stroke-dasharray:none;stroke-opacity:1"
     d="M 4.56,0.655 A 2.118,1.475 0 0 0 2.442,2.131 2.118,1.475 0 0 0 4.56,3.606 2.118,1.475 0 0 0 5.32,3.505 L 6.35,4.184 6.108,3.133 A 2.118,1.475 0 0 0 6.678,2.131 2.118,1.475 0 0 0 4.56,0.655 Z"
     id="path7" />
  <g
     transform="matrix(0.85728,0,0,0.80894,1.154,-0.13)"
     id="g10">
    <path
       style="font-size:3.61256px;font-family:'Liberation Sans';-inkscape-font-specification:'Liberation Sans';fill:#ffffff;stroke:#000d35;stroke-width:0.338677;stroke-linecap:round"
       d="M 4.02,1.428 C 3.769,1.428 3.566,1.491 3.413,1.615 3.261,1.74 3.169,1.919 3.139,2.151 l 0.324,0.021 a 0.501,0.501 0 0 1 0.17,-0.338 0.583,0.583 0 0 1 0.39,-0.123 c 0.166,0 0.293,0.038 0.384,0.116 a 0.394,0.394 0 0 1 0.137,0.318 c 0,0.069 -0.011,0.13 -0.033,0.181 A 0.506,0.506 0 0 1 4.426,2.466 0.746,0.746 0 0 1 4.304,2.579 l -0.137,0.1 A 2.292,2.292 0 0 0 4.027,2.784 0.731,0.731 0 0 0 3.904,2.91 0.635,0.635 0 0 0 3.814,3.072 0.682,0.682 0 0 0 3.777,3.286 H 4.086 A 0.426,0.426 0 0 1 4.149,3.066 0.679,0.679 0 0 1 4.338,2.871 L 4.479,2.767 C 4.589,2.687 4.667,2.617 4.716,2.559 A 0.671,0.671 0 0 0 4.826,2.367 0.674,0.674 0 0 0 4.866,2.13 0.63,0.63 0 0 0 4.639,1.615 C 4.489,1.491 4.283,1.428 4.02,1.428 Z"
       transform="scale(1.01922,0.98114)"
       id="path8" />
    <ellipse
       style="fill:#001f35;fill-opacity:1;stroke:#000d35;stroke-width:0.27914;stroke-linecap:round;stroke-dasharray:none;stroke-opacity:1"
       cx="3.339"
       cy="2.2939999"
       rx="0.19599999"
       ry="0.148"
       id="ellipse8" />
    <ellipse
       style="fill:#001f35;fill-opacity:1;stroke:#001f33;stroke-width:0.232261;stroke-linecap:round;stroke-dasharray:none;stroke-opacity:1"
       cx="4.0079999"
       cy="3.4000001"
       rx="0.21600001"
       ry="0.161"
       id="ellipse9" />
    <ellipse
       style="fill:#001f35;fill-opacity:1;stroke:#001f33;stroke-width:0.232261;stroke-linecap:round;stroke-dasharray:none;stroke-opacity:1"
       cx="4.0110002"
       cy="3.9909999"
       rx="0.21600001"
       ry="0.161"
       id="ellipse10" />
  </g>
  <path
     style="fill:#f4d7d7;fill-opacity:1;stroke:#000d35;stroke-width:0.252437;stroke-linecap:round;stroke-dasharray:none;stroke-opacity:1"
     d="m 12.233,0.655 a 2.118,1.475 0 0 0 -2.118,1.476 2.118,1.475 0 0 0 2.118,1.475 2.118,1.475 0 0 0 0.759,-0.101 l 1.03,0.679 -0.24,-1.051 A 2.118,1.475 0 0 0 14.35,2.131 2.118,1.475 0 0 0 12.233,0.655 Z"
     id="path10" />
  <g
     transform="matrix(0.85727,0,0,0.80894,8.827,-0.13)"
     style="fill:#001f35;fill-opacity:1"
     id="g13">
    <path
       style="font-size:3.61256px;font-family:'Liberation Sans';-inkscape-font-specification:'Liberation Sans';fill:#001f35;fill-opacity:1;stroke:#000d35;stroke-width:0.338677;stroke-linecap:round"
       d="M 4.02,1.428 C 3.769,1.428 3.566,1.491 3.413,1.615 3.261,1.74 3.169,1.919 3.139,2.151 l 0.324,0.021 a 0.501,0.501 0 0 1 0.17,-0.338 0.583,0.583 0 0 1 0.39,-0.123 c 0.166,0 0.293,0.038 0.384,0.116 a 0.394,0.394 0 0 1 0.137,0.318 c 0,0.069 -0.011,0.13 -0.033,0.181 A 0.506,0.506 0 0 1 4.426,2.466 0.746,0.746 0 0 1 4.304,2.579 l -0.137,0.1 A 2.292,2.292 0 0 0 4.027,2.784 0.731,0.731 0 0 0 3.904,2.91 0.635,0.635 0 0 0 3.814,3.072 0.682,0.682 0 0 0 3.777,3.286 H 4.086 A 0.426,0.426 0 0 1 4.149,3.066 0.679,0.679 0 0 1 4.338,2.871 L 4.479,2.767 C 4.589,2.687 4.667,2.617 4.716,2.559 A 0.671,0.671 0 0 0 4.826,2.367 0.674,0.674 0 0 0 4.866,2.13 0.63,0.63 0 0 0 4.639,1.615 C 4.489,1.491 4.283,1.428 4.02,1.428 Z"
       transform="scale(1.01922,0.98114)"
       id="path11" />
    <ellipse
       style="fill:#001f35;fill-opacity:1;stroke:#000d35;stroke-width:0.27914;stroke-linecap:round;stroke-dasharray:none;stroke-opacity:1"
       cx="3.339"
       cy="2.2939999"
       rx="0.19599999"
       ry="0.148"
       id="ellipse11" />
    <ellipse
       style="fill:#001f35;fill-opacity:1;stroke:#001f33;stroke-width:0.232261;stroke-linecap:round;stroke-dasharray:none;stroke-opacity:1"
       cx="4.0079999"
       cy="3.4000001"
       rx="0.21600001"
       ry="0.161"
       id="ellipse12" />
    <ellipse
       style="fill:#001f35;fill-opacity:1;stroke:#001f33;stroke-width:0.232261;stroke-linecap:round;stroke-dasharray:none;stroke-opacity:1"
       cx="4.0110002"
       cy="3.9909999"
       rx="0.21600001"
       ry="0.161"
       id="ellipse13" />
  </g>
  <path
     style="fill:#e3f4d7;fill-opacity:1;stroke:#000d35;stroke-width:0.265814;stroke-linecap:round;stroke-dasharray:none;stroke-opacity:1"
     d="M 10.7,2.75 A 2.233,1.551 0 0 1 12.933,4.302 2.233,1.551 0 0 1 10.7,5.853 2.233,1.551 0 0 1 9.9,5.747 L 8.813,6.461 9.067,5.356 A 2.233,1.551 0 0 1 8.467,4.302 2.233,1.551 0 0 1 10.7,2.75 Z"
     id="path13" />
  <path
     style="fill:#e3f4d7;fill-opacity:1;stroke:#c8c8c8;stroke-width:0.285149;stroke-linecap:round;stroke-dasharray:none;stroke-opacity:1"
     d="M 1.374,5.315 H 4.69"
     id="path14" />
  <path
     style="fill:none;stroke:none;stroke-width:0.132241;stroke-linecap:round;stroke-dasharray:none;stroke-opacity:1"
     d="M 16.774,6.275 20.241,6.261 Z"
     id="path15" />
  <path
     style="fill:#ffffff;fill-opacity:1;stroke:#b4b4b4;stroke-width:0.252437;stroke-linecap:round;stroke-dasharray:none;stroke-opacity:1"
     d="m 19.906,0.655 a 2.118,1.475 0 0 0 -2.118,1.476 2.118,1.475 0 0 0 2.118,1.475 2.118,1.475 0 0 0 0.759,-0.101 l 1.03,0.679 -0.24,-1.051 A 2.118,1.475 0 0 0 22.023,2.131 2.118,1.475 0 0 0 19.906,0.655 Z"
     id="path16" />
  <g
     transform="matrix(0.85727,0,0,0.80894,16.5,-0.13)"
     style="fill:#b4b4b4;fill-opacity:1;stroke:#b4b4b4;stroke-opacity:1"
     id="g19">
    <path
       style="font-size:3.61256px;font-family:'Liberation Sans';-inkscape-font-specification:'Liberation Sans';fill:#b4b4b4;fill-opacity:1;stroke:#b4b4b4;stroke-width:0.338677;stroke-linecap:round;stroke-opacity:1"
       d="M 4.02,1.428 C 3.769,1.428 3.566,1.491 3.413,1.615 3.261,1.74 3.169,1.919 3.139,2.151 l 0.324,0.021 a 0.501,0.501 0 0 1 0.17,-0.338 0.583,0.583 0 0 1 0.39,-0.123 c 0.166,0 0.293,0.038 0.384,0.116 a 0.394,0.394 0 0 1 0.137,0.318 c 0,0.069 -0.011,0.13 -0.033,0.181 A 0.506,0.506 0 0 1 4.426,2.466 0.746,0.746 0 0 1 4.304,2.579 l -0.137,0.1 A 2.292,2.292 0 0 0 4.027,2.784 0.731,0.731 0 0 0 3.904,2.91 0.635,0.635 0 0 0 3.814,3.072 0.682,0.682 0 0 0 3.777,3.286 H 4.086 A 0.426,0.426 0 0 1 4.149,3.066 0.679,0.679 0 0 1 4.338,2.871 L 4.479,2.767 C 4.589,2.687 4.667,2.617 4.716,2.559 A 0.671,0.671 0 0 0 4.826,2.367 0.674,0.674 0 0 0 4.866,2.13 0.63,0.63 0 0 0 4.639,1.615 C 4.489,1.491 4.283,1.428 4.02,1.428 Z"
       transform="scale(1.01922,0.98114)"
       id="path17" />
    <ellipse
       style="fill:#b4b4b4;fill-opacity:1;stroke:#b4b4b4;stroke-width:0.27914;stroke-linecap:round;stroke-dasharray:none;stroke-opacity:1"
       cx="3.339"
       cy="2.2939999"
       rx="0.19599999"
       ry="0.148"
       id="ellipse17" />
    <ellipse
       style="fill:#b4b4b4;fill-opacity:1;stroke:#b4b4b4;stroke-width:0.232261;stroke-linecap:round;stroke-dasharray:none;stroke-opacity:1"
       cx="4.0079999"
       cy="3.4000001"
       rx="0.21600001"
       ry="0.161"
       id="ellipse18" />
    <ellipse
       style="fill:#b4b4b4;fill-opacity:1;stroke:#b4b4b4;stroke-width:0.232261;stroke-linecap:round;stroke-dasharray:none;stroke-opacity:1"
       cx="4.0110002"
       cy="3.9909999"
       rx="0.21600001"
       ry="0.161"
       id="ellipse19" />
  </g>
  <path
     style="fill:#ffffff;fill-opacity:1;stroke:#b4b4b4;stroke-width:0.265814;stroke-linecap:round;stroke-dasharray:none;stroke-opacity:1"
     d="m 18.373,2.75 a 2.233,1.551 0 0 1 2.232,1.552 2.233,1.551 0 0 1 -2.232,1.551 2.233,1.551 0 0 1 -0.8,-0.106 L 16.486,6.461 16.74,5.356 A 2.233,1.551 0 0 1 16.14,4.302 2.233,1.551 0 0 1 18.373,2.75 Z"
     id="path19" />
  <path
     style="fill:#001f35;fill-opacity:1;stroke:#b4b4b4;stroke-width:0.285149;stroke-linecap:round;stroke-dasharray:none;stroke-opacity:1"
     d="m 16.718,4.899 h 3.315"
     id="path20" />
  <text
     xml:space="preserve"
     style="font-style:normal;font-variant:normal;font-weight:400;font-stretch:normal;font-size:0.764699px;font-family:'Liberation Sans Narrow';-inkscape-font-specification:'Liberation Sans Narrow';mix-blend-mode:darken;fill:#b4b4b4;fill-opacity:1;stroke:#b4b4b4;stroke-width:0.0716902;stroke-linecap:round;stroke-dasharray:none;stroke-opacity:1"
     x="12.821979"
     y="3.1029947"
     transform="scale(0.70347117,1.4215224)"
     id="text20"><tspan
       style="font-style:normal;font-variant:normal;font-weight:700;font-stretch:normal;font-family:Arial;-inkscape-font-specification:'Arial Bold';fill:#001f35;fill-opacity:0.55;stroke:#203c60;stroke-width:0.0716902;stroke-opacity:0.5"
       x="12.821979"
       y="3.1029947"
       id="tspan20">Lorem ipsum</tspan></text>
  <text
     xml:space="preserve"
     style="font-style:normal;font-variant:normal;font-weight:400;font-stretch:normal;font-size:0.764699px;font-family:'Liberation Sans Narrow';-inkscape-font-specification:'Liberation Sans Narrow';mix-blend-mode:darken;fill:#b4b4b4;fill-opacity:1;stroke:#d5d5d5;stroke-width:0.0716902;stroke-linecap:round;stroke-dasharray:none;stroke-opacity:1"
     x="23.751961"
     y="3.1919947"
     transform="scale(0.70347117,1.4215224)"
     id="text21"><tspan
       style="font-style:normal;font-variant:normal;font-weight:700;font-stretch:normal;font-family:Arial;-inkscape-font-specification:'Arial Bold';fill:#b4b4b4;fill-opacity:1;stroke:#d5d5d5;stroke-width:0.0716902;stroke-opacity:1"
       x="23.751961"
       y="3.1919947"
       id="tspan21">Lorem ipsum</tspan></text>
  <path
     style="fill:#001f35;fill-opacity:1;stroke:#b4b4b4;stroke-width:0.285149;stroke-linecap:round;stroke-dasharray:none;stroke-opacity:1"
     d="m 9.043,4.795 h 3.315"
     id="path21" />
</svg>
